<?xml version="1.0" standalone="no"?>
<!DOCTYPE svg PUBLIC "-//W3C//DTD SVG 20010904//EN"
 "http://www.w3.org/TR/2001/REC-SVG-20010904/DTD/svg10.dtd">
<svg version="1.0" xmlns="http://www.w3.org/2000/svg"
 width="450.000000pt" height="457.000000pt" viewBox="0 0 450.000000 457.000000"
 preserveAspectRatio="xMidYMid meet">
<metadata>
Created by potrace 1.10, written by Peter Selinger 2001-2011
</metadata>
<g transform="translate(0.000000,457.000000) scale(0.100000,-0.100000)"
fill="#000000" stroke="none">
<path d="M4470 2295 l0 -2275 -2237 -3 -2238 -2 2248 -3 2247 -2 0 2280 c0
1513 -3 2280 -10 2280 -7 0 -10 -765 -10 -2275z"/>
<path d="M1585 3981 c-3 -5 -1 -12 5 -16 5 -3 10 1 10 9 0 18 -6 21 -15 7z"/>
<path d="M2005 3943 c-27 -14 -52 -29 -55 -32 -3 -4 -20 -13 -37 -20 -18 -7
-31 -17 -28 -21 6 -10 -19 -20 -48 -20 -16 0 -18 -3 -8 -9 9 -6 10 -11 2 -15
-6 -4 -9 -11 -6 -16 2 -4 -33 -26 -79 -49 -46 -23 -87 -48 -90 -57 -7 -17 -1
-14 58 28 21 15 54 30 72 34 19 3 34 10 34 14 0 14 152 136 198 159 23 12 42
24 42 26 0 7 1 7 -55 -22z"/>
<path d="M2238 3963 c-10 -2 -18 -8 -18 -13 0 -4 9 -6 20 -3 11 3 20 9 20 14
0 5 -1 8 -2 8 -2 -1 -11 -3 -20 -6z"/>
<path d="M2141 3920 c-62 -35 -112 -70 -159 -114 -27 -25 -35 -28 -42 -16 -7
12 -12 11 -29 -4 -27 -25 -27 -40 0 -26 11 7 23 9 27 6 9 -10 -40 -56 -59 -56
-10 0 -31 -11 -46 -25 l-28 -24 25 -1 c43 0 100 12 100 22 0 5 -5 6 -12 2 -7
-4 -8 -3 -4 4 5 8 15 8 31 2 l25 -10 -17 27 -17 26 28 -5 c22 -4 30 -2 33 13
3 10 13 21 22 24 10 3 29 17 42 31 20 22 15 20 -30 -10 -54 -35 -92 -40 -49
-6 13 10 41 34 62 54 22 20 46 36 54 36 7 0 11 4 8 9 -3 5 11 17 32 26 20 10
46 24 57 31 35 25 1 14 -54 -16z"/>
<path d="M1663 3858 c-19 -31 -33 -55 -44 -78 -22 -49 -26 -55 -38 -55 -15 0
-40 -54 -34 -72 2 -6 -5 -17 -16 -23 -12 -6 -21 -16 -21 -22 0 -9 3 -9 12 0
19 19 26 14 21 -12 -6 -28 -43 -68 -43 -46 0 10 -4 9 -17 -1 -11 -10 -14 -10
-9 -1 4 7 2 12 -8 12 -9 0 -13 -7 -11 -20 4 -19 -6 -25 -30 -20 -5 1 -7 -2 -3
-5 6 -7 -103 -85 -117 -85 -16 1 -170 -148 -162 -156 3 -4 34 19 69 51 128
116 363 251 516 296 24 7 50 22 57 33 21 29 12 30 -30 1 -73 -49 -68 -29 14
58 25 26 41 47 36 47 -18 0 -75 -39 -75 -52 0 -6 -3 -8 -7 -5 -10 11 -33 -13
-33 -34 0 -12 -11 -24 -27 -30 -15 -6 -47 -27 -72 -47 l-44 -36 7 30 c10 38
105 244 124 267 9 10 11 17 4 17 -6 0 -14 -6 -19 -12z"/>
<path d="M2845 3857 c-16 -7 -48 -22 -71 -34 -30 -16 -61 -22 -117 -24 -91 -2
-199 -18 -211 -29 -5 -5 -18 -4 -29 2 -12 6 -46 7 -91 3 -121 -12 -206 -12
-206 1 0 18 44 43 102 59 49 13 50 14 18 14 -50 1 -112 -30 -167 -83 -26 -25
-53 -46 -60 -46 -21 0 -15 -18 8 -25 13 -4 27 -1 40 11 24 21 108 30 138 14
17 -9 26 -9 36 0 8 7 35 10 60 8 39 -3 43 -1 28 9 -14 11 -10 13 30 13 26 0
47 -4 47 -10 0 -5 -4 -10 -8 -10 -5 0 -17 -7 -28 -15 -10 -8 -14 -15 -9 -14
23 3 29 -2 15 -12 -13 -9 -13 -10 0 -6 8 2 15 9 15 15 0 5 3 14 8 18 17 17
166 54 242 60 62 5 95 14 147 40 114 57 172 43 250 -62 48 -64 104 -127 91
-104 -24 46 -129 172 -157 189 -42 26 -85 32 -121 18z"/>
<path d="M1121 3785 c-22 -30 -41 -60 -41 -67 0 -7 9 1 20 17 11 17 31 47 45
68 37 55 23 45 -24 -18z"/>
<path d="M1724 3816 c-50 -23 -86 -67 -122 -150 -22 -50 -6 -38 21 16 15 29
32 60 39 69 17 20 85 63 123 77 22 7 25 11 10 11 -11 0 -43 -10 -71 -23z"/>
<path d="M1370 3765 c-44 -44 -71 -64 -82 -61 -10 2 -18 0 -18 -5 0 -5 -20
-29 -45 -55 -25 -25 -45 -42 -45 -38 0 3 -6 1 -14 -5 -11 -9 -15 -9 -18 1 -2
6 -12 -7 -21 -31 -10 -23 -15 -46 -12 -51 3 -5 0 -12 -6 -16 -15 -9 -4 54 26
159 12 43 18 74 13 69 -30 -30 -79 -301 -82 -453 -1 -83 -10 -98 -104 -197
-17 -19 -32 -38 -32 -44 0 -5 -5 -6 -12 -2 -6 4 -8 3 -4 -4 3 -6 -11 -25 -34
-43 -22 -18 -40 -37 -40 -43 0 -6 6 -4 13 4 7 9 19 14 27 13 22 -4 30 4 85 82
27 39 73 98 102 132 39 45 48 63 38 67 -12 4 -15 26 -14 98 0 51 4 102 9 113
7 17 9 16 10 -10 1 -26 3 -24 14 17 7 25 20 58 30 72 9 15 14 32 10 38 -4 6
-3 8 3 5 6 -4 19 3 29 15 33 36 188 163 197 160 5 -1 6 2 3 7 -4 5 6 23 20 40
41 50 23 36 -46 -34z"/>
<path d="M1171 3784 c-17 -37 -8 -39 13 -4 9 17 13 30 8 30 -5 0 -14 -12 -21
-26z"/>
<path d="M2883 3803 c9 -2 23 -2 30 0 6 3 -1 5 -18 5 -16 0 -22 -2 -12 -5z"/>
<path d="M2838 3793 c7 -3 16 -2 19 1 4 3 -2 6 -13 5 -11 0 -14 -3 -6 -6z"/>
<path d="M2775 3780 c-4 -6 9 -10 32 -10 28 0 34 3 23 10 -20 13 -47 13 -55 0z"/>
<path d="M1844 3758 l-19 -23 23 19 c21 18 27 26 19 26 -2 0 -12 -10 -23 -22z"/>
<path d="M1441 3756 c-9 -10 -8 -16 4 -26 19 -16 45 -6 45 17 -1 17 -1 17 -14
1 -7 -10 -16 -18 -20 -18 -11 0 -6 28 7 33 7 4 8 6 1 6 -6 1 -17 -5 -23 -13z"/>
<path d="M2560 3739 c0 -5 4 -8 8 -5 14 9 96 -35 133 -71 29 -27 45 -35 74
-35 20 0 39 3 42 6 4 3 -4 6 -16 6 -12 0 -19 4 -16 10 3 6 -3 10 -14 10 -12 0
-21 3 -21 8 0 4 -16 18 -35 31 -20 13 -33 27 -29 30 3 3 36 9 72 12 53 5 38 6
-65 7 -88 1 -133 -2 -133 -9z"/>
<path d="M2830 3730 c0 -13 11 -13 30 0 12 8 11 10 -7 10 -13 0 -23 -4 -23
-10z"/>
<path d="M1291 3643 c-45 -47 -78 -89 -75 -92 6 -6 77 67 133 137 52 67 29 49
-58 -45z"/>
<path d="M1809 3713 c-13 -16 -12 -17 4 -4 9 7 17 15 17 17 0 8 -8 3 -21 -13z"/>
<path d="M2075 3700 c-13 -6 7 -8 60 -8 55 0 72 3 55 8 -33 11 -90 11 -115 0z"/>
<path d="M1050 3670 c-18 -43 -9 -45 12 -4 10 19 14 34 9 34 -5 0 -14 -14 -21
-30z"/>
<path d="M2840 3692 l35 -5 -30 -7 -30 -7 37 -7 c21 -5 46 -5 55 -1 17 6 17 7
-1 21 -11 8 -38 13 -60 12 l-41 -1 35 -5z"/>
<path d="M2920 3695 c0 -12 38 -21 60 -14 25 8 24 9 -3 5 -15 -2 -30 1 -33 5
-5 9 -24 12 -24 4z"/>
<path d="M3010 3690 c0 -5 5 -10 11 -10 5 0 7 5 4 10 -3 6 -8 10 -11 10 -2 0
-4 -4 -4 -10z"/>
<path d="M2405 3680 c3 -5 14 -10 24 -10 10 0 63 -12 117 -26 109 -29 154 -36
154 -24 0 17 -30 31 -66 30 -22 -1 -73 8 -114 19 -82 23 -125 27 -115 11z"/>
<path d="M2075 3670 c-4 -7 25 -9 84 -8 49 1 87 6 85 10 -8 12 -162 10 -169
-2z"/>
<path d="M1963 3663 c-13 -2 -23 -11 -23 -19 0 -8 -8 -14 -17 -14 -10 0 -36
-2 -58 -5 -37 -4 -36 -4 10 9 28 7 41 14 30 14 -30 0 -124 -25 -97 -27 12 0
22 -5 22 -10 0 -6 9 -8 20 -6 10 2 50 7 89 11 53 5 71 3 77 -8 5 -7 20 -18 34
-25 37 -16 100 -73 100 -90 0 -8 5 -11 10 -8 6 4 18 1 26 -6 10 -8 54 -15 110
-17 75 -4 94 -7 94 -19 0 -11 7 -14 28 -10 18 4 40 -2 68 -18 23 -14 44 -21
48 -18 4 4 -4 12 -16 19 -26 14 -23 16 62 32 35 6 62 6 75 0 20 -9 20 -9 1 6
-19 16 -19 16 6 16 36 0 140 -49 132 -62 -4 -7 -2 -8 4 -4 7 4 12 1 12 -8 0
-9 3 -15 8 -15 19 3 33 -2 28 -10 -3 -5 8 -14 24 -21 16 -7 27 -16 24 -21 -3
-5 3 -6 12 -2 16 6 16 7 0 18 -9 7 -16 16 -16 22 0 29 -139 116 -206 129 -28
5 -42 2 -64 -15 -21 -15 -44 -21 -82 -21 -87 1 -229 25 -323 55 -14 4 -12 2 5
-9 14 -8 20 -15 13 -16 -6 0 -22 9 -35 20 -12 11 -45 34 -73 52 -27 17 -66 42
-86 55 -19 12 -46 24 -60 24 -16 1 -19 3 -6 6 9 2 17 9 17 14 0 5 -1 8 -2 8
-2 -1 -13 -4 -25 -6z"/>
<path d="M2372 3655 c3 -3 28 -11 57 -19 39 -10 51 -10 51 -1 0 7 -17 15 -37
19 -47 7 -78 8 -71 1z"/>
<path d="M1400 3625 c-7 -9 -11 -17 -9 -20 3 -2 10 5 17 15 14 24 10 26 -8 5z"/>
<path d="M2233 3628 c5 -15 0 -18 -31 -19 -32 0 -23 -5 63 -36 88 -31 114 -36
220 -40 96 -3 116 -2 101 8 -12 7 -54 12 -107 11 -85 -1 -149 13 -164 38 -3 5
-17 10 -30 10 -13 0 -31 10 -41 23 -11 15 -15 16 -11 5z"/>
<path d="M2266 3632 c11 -11 115 -34 122 -28 2 3 -13 12 -33 20 -39 17 -106
22 -89 8z"/>
<path d="M3230 3630 c-9 -6 -10 -10 -3 -10 6 0 15 5 18 10 8 12 4 12 -15 0z"/>
<path d="M2178 3623 c7 -3 16 -2 19 1 4 3 -2 6 -13 5 -11 0 -14 -3 -6 -6z"/>
<path d="M2407 3620 c10 -10 144 -50 168 -50 10 0 23 -6 29 -14 11 -13 136
-59 143 -53 6 7 -147 76 -197 89 -83 22 -151 35 -143 28z"/>
<path d="M3162 3619 c16 -11 48 -12 48 -1 0 4 -14 7 -31 8 -20 1 -26 -2 -17
-7z"/>
<path d="M1027 3613 c-4 -3 -7 -11 -7 -17 0 -6 5 -5 12 2 6 6 9 14 7 17 -3 3
-9 2 -12 -2z"/>
<path d="M2830 3610 c-8 -5 -30 -10 -47 -10 -18 0 -33 -4 -33 -9 0 -13 65 -68
89 -76 11 -3 30 -22 42 -41 13 -21 36 -41 60 -51 22 -8 39 -19 39 -24 0 -5
-15 -2 -32 6 l-33 16 24 -21 c14 -12 31 -18 42 -15 11 4 19 2 19 -4 0 -5 14
-12 30 -16 17 -4 28 -10 25 -15 -3 -4 2 -13 10 -20 8 -7 12 -16 9 -21 -3 -5 1
-6 9 -3 8 3 19 -2 26 -10 10 -12 8 -16 -8 -21 -26 -8 -43 2 -39 23 2 10 -9 27
-26 40 -35 26 -37 27 -30 7 4 -8 12 -15 20 -15 8 0 14 -4 14 -10 0 -15 -16
-12 -30 6 -8 8 -23 20 -34 26 -42 21 71 -85 137 -128 65 -44 89 -67 46 -43
-11 6 11 -21 50 -59 39 -39 71 -77 71 -85 0 -8 7 -17 15 -21 8 -3 15 -11 15
-19 0 -7 11 -24 25 -37 14 -13 40 -46 57 -73 26 -41 30 -52 20 -68 -15 -23
-15 -29 -1 -29 5 0 7 5 3 12 -4 7 -3 8 5 4 6 -4 9 -12 6 -17 -14 -22 -43 -4
-85 52 -81 109 -310 312 -394 350 -27 13 -33 24 -17 33 5 3 14 -1 21 -9 16
-19 46 -19 54 0 5 13 12 11 45 -11 27 -17 46 -24 60 -19 19 6 14 12 -36 49
-32 23 -80 67 -107 97 -26 30 -56 58 -65 63 -34 19 87 -107 154 -160 40 -31
20 -31 -27 1 -43 29 -51 30 -68 10 -7 -9 -15 -13 -18 -10 -3 3 -11 0 -18 -6
-8 -6 -20 -9 -28 -6 -30 12 -5 -19 32 -38 20 -11 43 -26 50 -33 8 -6 23 -17
34 -23 25 -13 42 -27 142 -115 96 -85 129 -120 190 -205 61 -85 78 -102 87
-88 4 7 15 9 24 5 13 -4 16 -2 11 9 -3 8 -1 15 5 15 6 0 7 5 4 11 -5 6 -12 4
-21 -8 -7 -10 -14 -13 -14 -8 0 6 -4 3 -10 -5 -5 -8 -12 -11 -17 -7 -13 13 13
42 40 45 21 3 28 -2 33 -23 4 -18 1 -32 -11 -45 -19 -21 -41 -28 -30 -10 3 6
-1 7 -10 4 -13 -5 -13 -9 -3 -23 7 -9 16 -18 19 -21 10 -8 39 -68 39 -80 0
-16 26 -40 35 -32 4 4 3 -3 -4 -15 -12 -24 -46 -21 -37 3 6 14 -75 155 -120
208 l-25 31 21 -32 c11 -17 27 -51 36 -75 8 -24 28 -60 44 -80 17 -20 30 -43
30 -51 0 -7 7 -22 15 -33 8 -10 15 -29 15 -42 0 -14 4 -21 11 -17 6 4 7 19 4
36 -4 18 -3 29 4 29 6 0 11 -7 11 -15 0 -8 4 -15 8 -15 4 0 8 -9 9 -19 1 -12
-3 -18 -11 -15 -20 8 -56 -34 -55 -64 2 -27 2 -27 6 -2 6 34 23 50 23 23 0
-12 9 -28 19 -35 27 -19 43 -83 39 -153 -3 -55 -5 -60 -25 -59 -25 1 -31 -11
-9 -19 7 -3 19 0 26 6 10 9 12 8 7 -5 -3 -10 -2 -20 4 -24 14 -8 -9 -34 -26
-28 -18 7 -28 -12 -17 -32 8 -14 12 -12 30 11 25 32 30 21 6 -13 -8 -12 -11
-22 -6 -22 5 0 7 -12 4 -26 -4 -22 -6 -24 -14 -10 -5 9 -6 21 -3 26 3 6 -1 10
-9 10 -8 0 -20 9 -26 21 -9 16 -8 26 5 46 20 30 10 46 -12 18 -9 -13 -13 -33
-10 -57 3 -20 2 -40 -2 -43 -3 -4 -6 -11 -6 -16 0 -5 -4 -8 -10 -6 -12 3 -11
34 4 157 6 52 14 120 16 150 l4 55 -9 -50 c-5 -27 -14 -90 -19 -140 -6 -49
-13 -101 -17 -113 -4 -13 -1 -47 6 -75 11 -47 10 -59 -9 -115 -12 -35 -19 -72
-16 -83 3 -10 -1 -45 -10 -78 -12 -42 -14 -64 -7 -78 7 -12 7 -24 1 -34 -5 -7
-6 -26 -3 -41 7 -34 -11 -68 -36 -68 -10 0 -28 -13 -39 -29 -12 -16 -34 -32
-50 -36 -16 -3 -51 -20 -77 -38 -27 -17 -52 -30 -57 -29 -4 1 -6 -1 -5 -5 1
-5 -7 -26 -19 -48 -11 -22 -23 -57 -27 -77 -5 -28 -14 -40 -36 -50 -17 -7 -30
-16 -30 -20 0 -5 -5 -8 -12 -8 -6 0 -26 -11 -43 -25 -18 -13 -35 -22 -37 -19
-3 2 -11 -2 -18 -11 -11 -14 -14 -13 -24 6 -15 31 -33 34 -46 9 -9 -16 -9 -25
-1 -33 6 -6 11 -17 11 -24 0 -21 -172 -123 -209 -123 -8 0 -24 -8 -35 -19 -34
-30 -109 -42 -262 -40 -143 1 -144 1 -163 27 -19 26 -20 26 -40 8 -17 -16 -30
-18 -83 -12 -76 9 -180 39 -268 78 -36 16 -66 29 -67 29 -2 0 -20 7 -40 16
-133 57 -178 87 -155 102 7 4 14 29 16 54 2 45 0 48 -38 74 -23 16 -43 31 -46
34 -3 3 -21 14 -40 23 -34 16 -34 16 -14 -1 11 -10 31 -26 45 -36 24 -18 24
-18 2 -13 -16 3 -23 -1 -23 -10 0 -8 -7 -17 -15 -20 -8 -4 -12 -10 -9 -15 3
-5 -4 -5 -16 -1 -39 15 -136 119 -154 167 -20 51 -34 59 -32 17 2 -48 29 -81
174 -213 17 -16 32 -34 32 -40 0 -13 -28 8 -121 91 -40 36 -70 57 -66 47 4
-10 7 -25 7 -34 0 -10 6 -13 18 -9 14 5 14 4 -2 -9 -19 -14 -18 -15 11 -15 37
0 43 -7 49 -57 3 -20 10 -43 16 -51 15 -18 133 -102 143 -102 5 0 17 7 27 16
17 16 20 15 58 -11 36 -25 40 -33 39 -64 -1 -20 2 -44 6 -53 9 -22 5 -22 -37
-4 -18 8 -42 17 -53 21 -18 6 -18 7 4 18 54 27 54 77 0 77 -26 0 -29 -2 -19
-14 6 -8 18 -12 26 -9 16 6 19 -14 5 -36 -13 -21 -41 -5 -41 23 0 18 -4 24
-15 20 -15 -6 -132 74 -169 115 -15 16 -16 24 -7 35 14 17 0 29 -24 20 -8 -4
-15 -3 -14 2 5 27 -4 34 -11 9 l-7 -30 -8 30 c-4 17 -28 57 -52 89 -47 63 -46
92 1 61 33 -22 33 -7 0 24 -14 13 -23 30 -20 38 3 8 1 24 -5 36 -9 21 -9 20
10 -2 25 -28 26 -24 7 26 -50 129 -58 183 -51 318 3 71 12 155 20 185 7 30 14
90 14 133 1 48 7 87 16 100 25 39 57 131 64 182 6 49 7 51 66 81 70 37 90 55
117 108 11 21 31 49 44 61 24 22 27 23 59 9 53 -22 66 -16 15 7 -57 26 -72 18
-125 -64 -32 -49 -53 -69 -108 -100 -71 -41 -95 -43 -59 -4 31 33 52 90 52
141 0 34 4 46 18 49 13 4 11 5 -5 6 -13 1 -23 7 -23 16 0 18 4 18 33 4 19 -9
18 -7 -3 10 l-25 20 25 10 c17 6 19 10 8 10 -9 1 -21 7 -25 14 -4 6 -14 12
-20 12 -7 0 -14 4 -15 10 -5 17 105 14 184 -6 83 -21 116 -23 136 -10 8 5 -3
8 -30 9 -24 1 -54 4 -68 7 -14 3 -41 8 -60 11 -19 4 -43 13 -52 21 -12 11 -21
12 -37 4 -25 -14 -71 -14 -71 -1 0 6 5 10 10 10 6 0 10 5 10 10 0 14 -26 12
-38 -2 -7 -9 -4 -42 10 -110 17 -82 18 -105 8 -151 -13 -66 -41 -97 -66 -76
-16 13 -16 12 -4 -11 27 -51 0 -208 -46 -261 -8 -8 -14 -25 -14 -37 0 -29 -18
-37 -23 -10 -4 19 -5 18 -6 -6 -3 -70 -36 -213 -54 -238 -12 -15 -18 -30 -15
-33 9 -10 45 47 57 90 6 22 11 59 11 83 0 23 4 42 9 42 5 0 11 8 14 18 2 9 4
-11 5 -45 1 -38 -6 -87 -18 -125 -11 -35 -20 -91 -20 -126 0 -60 -16 -151 -29
-162 -3 -3 -14 -21 -24 -40 -18 -36 -18 -36 8 -83 15 -26 22 -47 16 -47 -6 0
-11 5 -11 12 0 6 -2 9 -5 7 -2 -3 2 -27 9 -54 7 -28 11 -67 10 -87 -3 -44 12
-61 22 -24 7 30 -1 152 -15 216 -13 57 -13 80 -2 80 9 0 32 -64 51 -149 11
-48 11 -89 -4 -206 -2 -16 -1 -20 1 -7 4 20 9 15 46 -36 23 -32 47 -67 53 -78
8 -12 21 -18 38 -17 16 1 24 -2 20 -8 -8 -13 48 -72 94 -101 17 -11 30 -24 27
-28 -3 -5 -19 -1 -34 8 -41 25 -265 230 -267 245 -1 7 -22 42 -48 79 -51 72
-54 80 -30 71 14 -5 16 -2 11 18 -3 13 -11 50 -17 82 -6 31 -15 57 -20 57 -5
0 -7 6 -4 14 3 8 0 17 -7 21 -8 6 -11 1 -7 -17 3 -14 -1 -33 -8 -43 -11 -15
-10 -22 5 -44 23 -33 38 -76 22 -67 -22 14 -10 -12 50 -113 48 -79 78 -117
138 -169 42 -37 96 -88 121 -113 52 -52 129 -109 180 -131 19 -8 71 -31 115
-51 105 -47 339 -107 416 -107 16 0 29 -5 29 -11 0 -8 -16 -10 -52 -5 -29 3
-73 8 -98 11 l-45 4 51 -13 c28 -7 93 -16 145 -21 80 -6 97 -10 115 -30 12
-13 19 -26 16 -29 -3 -3 2 -6 11 -6 10 0 17 6 17 13 0 23 37 49 77 56 21 3 99
5 173 5 110 -1 141 -4 162 -18 21 -14 30 -15 52 -5 14 7 26 18 26 26 0 16 -3
15 87 17 81 3 113 21 113 63 0 29 21 53 47 53 11 0 28 8 39 18 10 10 51 36 89
57 39 22 76 45 83 52 19 19 56 38 48 25 -6 -10 30 -52 44 -52 10 0 50 40 50
49 0 5 -8 19 -19 32 l-18 24 58 65 c46 50 59 60 59 44 0 -22 29 -54 48 -54 6
0 14 -9 17 -21 13 -39 16 -11 4 32 -6 24 -14 38 -16 32 -3 -7 -11 -13 -19 -13
-16 0 -19 26 -4 35 12 7 -5 35 -20 35 -5 0 -36 -29 -71 -65 -34 -36 -87 -84
-118 -108 -31 -23 -63 -49 -73 -57 -9 -8 -43 -28 -75 -45 -32 -16 -66 -38 -75
-49 -11 -11 -24 -16 -35 -12 -11 5 -23 -1 -35 -16 -13 -17 -20 -20 -28 -12 -9
9 -21 7 -48 -6 -21 -10 -64 -24 -97 -30 -33 -7 -71 -14 -84 -17 -17 -4 -22 -2
-17 6 4 6 -8 4 -28 -6 -38 -18 -46 -30 -21 -30 8 0 15 5 15 11 0 6 5 5 12 -2
19 -19 -16 -51 -40 -36 -9 7 -16 20 -14 29 3 14 -1 16 -23 11 -15 -4 -40 -17
-57 -29 -25 -18 -30 -19 -39 -7 -5 8 -8 24 -7 35 3 18 11 20 74 21 66 0 153
27 154 47 0 10 -18 9 -25 -3 -11 -18 -25 -11 -25 13 0 43 63 77 97 52 14 -10
24 -10 55 1 21 7 45 11 53 8 8 -4 15 -1 15 5 0 6 12 16 28 22 42 16 125 59
141 74 11 11 9 15 -14 28 -18 9 -24 17 -16 21 6 4 11 2 11 -4 0 -6 5 -8 10 -5
6 3 10 1 10 -6 0 -6 8 -9 19 -6 27 7 55 -25 46 -52 -4 -14 -15 -21 -31 -21
-14 0 -23 4 -19 10 3 5 12 7 19 4 18 -7 30 12 15 22 -8 4 -9 3 -5 -4 4 -7 2
-12 -3 -12 -6 0 -11 6 -11 13 0 9 -2 9 -8 1 -4 -7 -23 -19 -42 -27 -19 -9 -30
-16 -23 -16 7 -1 10 -7 7 -15 -8 -20 28 -30 42 -12 6 9 18 16 27 16 8 0 29 11
45 25 17 14 34 25 40 25 5 0 12 7 16 15 3 8 12 15 20 15 8 0 19 6 23 13 4 7
43 43 86 81 89 79 109 106 78 106 -11 0 -22 -9 -26 -20 -3 -11 -16 -22 -29
-26 -12 -3 -39 -23 -60 -45 -21 -21 -43 -39 -47 -39 -19 0 -8 19 31 54 22 20
37 36 33 36 -5 0 -1 4 7 10 9 5 19 5 26 -1 8 -7 14 -6 19 1 4 6 3 9 -2 8 -4
-2 -8 2 -8 7 0 6 5 9 11 9 6 -1 11 11 10 27 -2 39 -12 45 -19 10 -5 -21 -14
-32 -31 -37 -29 -7 -67 -44 -46 -44 17 0 -20 -29 -37 -30 -21 0 -15 18 12 42
17 14 25 32 25 53 0 18 8 39 18 48 21 19 37 23 27 7 -4 -6 -1 -9 6 -8 26 6 66
72 63 106 -1 17 3 32 8 32 6 0 8 -9 5 -19 -3 -13 -1 -18 9 -14 7 2 10 11 7 19
-3 9 2 14 13 14 15 0 16 2 5 9 -17 11 -7 41 13 41 22 0 38 -34 24 -48 -7 -7
-17 -12 -23 -12 -5 -1 -27 -28 -47 -60 -37 -59 -37 -60 -20 -90 21 -37 54 -39
77 -4 9 14 24 33 33 43 37 37 142 256 120 249 -14 -5 -46 -57 -47 -77 -1 -16
-68 -128 -90 -151 -9 -8 -29 -31 -45 -50 -29 -35 -29 -35 -24 -8 3 17 1 25 -5
21 -5 -3 -7 0 -5 8 3 8 13 12 23 11 17 -3 17 -2 5 13 -13 15 -12 17 5 13 16
-3 32 14 73 75 28 43 52 81 52 83 0 2 -6 4 -14 4 -19 0 -25 20 -13 47 9 20 11
21 32 7 20 -13 23 -13 29 2 8 21 8 21 -31 27 -30 5 -32 3 -50 -46 -10 -28 -24
-52 -31 -55 -10 -3 -9 4 3 29 13 25 15 37 6 50 -11 19 1 35 18 24 20 -12 21
15 1 35 -25 25 -25 46 0 88 18 29 18 32 2 33 -9 0 -12 3 -5 5 8 4 8 15 2 39
-7 24 -6 41 2 57 6 12 15 33 20 47 7 25 7 25 8 -6 1 -17 -3 -34 -8 -37 -16
-10 -1 -71 22 -88 12 -10 26 -18 31 -18 6 0 1 6 -10 14 -10 8 -16 18 -11 22 4
4 7 2 7 -4 0 -23 18 -12 24 16 4 15 9 35 12 45 5 15 2 18 -14 13 -35 -12 -53
42 -27 84 4 6 -1 20 -10 30 -15 16 -15 22 -5 35 7 8 9 15 4 15 -11 0 18 20 28
20 5 0 7 -3 6 -7 0 -5 2 -16 7 -27 5 -11 3 -26 -5 -39 -11 -18 -9 -23 11 -38
l24 -18 7 37 c4 20 10 105 14 187 6 125 4 160 -10 208 -13 45 -21 57 -37 57
-27 0 -22 43 5 48 11 3 16 0 12 -7 -4 -6 -2 -11 3 -11 6 0 11 -7 11 -17 0 -9
3 -14 6 -11 3 3 0 26 -6 49 -7 24 -14 55 -17 69 -6 34 -39 149 -52 182 -6 18
-7 29 -1 33 6 4 13 -7 16 -24 4 -17 10 -31 14 -31 4 0 10 -19 14 -42 10 -67
26 -108 42 -108 16 0 13 22 -16 98 -21 55 -10 95 24 90 29 -4 29 -51 1 -56
-19 -3 -19 -2 -2 11 9 8 17 18 17 22 0 5 -8 0 -19 -9 -18 -16 -18 -18 0 -54
11 -20 19 -43 19 -52 0 -13 1 -13 10 0 7 11 8 6 4 -16 -5 -24 -2 -31 10 -31 9
0 16 4 16 9 0 4 5 8 11 8 8 0 8 -5 -1 -15 -10 -12 -10 -18 0 -29 8 -11 9 -20
1 -33 -10 -17 -10 -16 -11 3 0 12 -7 27 -15 34 -13 11 -13 9 -2 -21 7 -19 13
-46 12 -61 0 -15 3 -24 7 -21 5 2 6 14 2 25 -4 14 -2 18 5 14 14 -9 15 -43 1
-51 -6 -4 -5 -16 1 -33 6 -15 11 -62 12 -104 l2 -76 23 21 c22 21 29 33 13 23
-5 -4 -9 23 -9 60 1 54 3 64 16 59 12 -5 13 -3 2 10 -7 9 -19 14 -26 11 -9 -3
-11 13 -9 70 2 40 -1 76 -6 79 -5 4 -9 11 -9 17 0 6 10 2 23 -10 26 -24 47
-28 65 -10 7 7 8 17 1 30 -12 22 -32 23 -49 3 -12 -14 -16 -13 -42 11 -28 27
-39 52 -16 38 6 -4 8 -3 4 4 -3 6 -14 9 -24 7 -13 -2 -17 3 -17 21 2 27 15 46
15 21 0 -9 3 -18 8 -20 6 -4 7 28 3 89 -1 8 -5 13 -10 10 -5 -3 -11 1 -14 9
-4 8 -15 12 -27 10 -24 -5 -45 35 -34 67 5 18 8 17 25 -11 10 -17 21 -31 24
-31 4 0 -1 10 -9 22 -9 12 -16 38 -17 58 0 19 -3 29 -6 22 -3 -8 -11 -5 -24
10 -10 13 -18 17 -19 11 0 -7 -12 -13 -26 -13 -16 0 -23 4 -18 12 5 7 3 8 -5
4 -8 -5 -11 -3 -9 5 1 8 0 14 -4 14 -11 0 -35 37 -36 55 -2 31 -20 91 -33 106
-7 8 -27 21 -44 28 -18 8 -42 27 -53 43 -22 31 -19 51 5 32 7 -6 22 -9 33 -6
24 6 42 -14 82 -93 7 -14 21 -26 31 -26 14 -2 10 8 -19 48 -24 34 -33 55 -28
66 4 10 6 22 4 27 -1 6 -2 28 -1 51 2 36 -3 45 -39 78 -50 45 -82 117 -46 103
8 -3 13 1 12 11 0 9 4 16 10 15 16 -3 5 44 -14 59 -15 13 -112 19 -112 7 0 -9
-49 2 -56 12 -3 5 7 9 23 10 36 1 25 4 -63 19 -71 11 -71 11 -68 41 5 41 -20
49 -51 15 l-24 -26 29 -15 c16 -8 42 -15 57 -16 25 0 26 -1 8 -9 -18 -8 -18
-9 5 -10 20 -2 21 -3 6 -7 -17 -4 -55 -33 -44 -33 3 0 23 9 46 20 l42 20 21
-21 22 -22 -27 5 c-14 3 -26 1 -26 -4 0 -6 -12 -7 -27 -4 -26 6 -27 5 -10 -8
18 -14 18 -14 0 -19 -16 -4 -15 -6 4 -12 18 -6 21 -11 13 -25 -5 -9 -7 -20 -4
-23 3 -3 6 -12 8 -20 2 -13 44 -69 56 -75 3 -1 15 -5 27 -8 13 -4 21 -10 18
-14 -3 -4 10 -11 28 -15 29 -7 30 -8 9 -12 -22 -4 -23 -5 -5 -18 17 -13 17
-14 -5 -8 -12 3 -32 17 -45 32 -44 52 -203 180 -244 196 -24 9 -41 21 -38 25
3 5 -1 11 -7 13 -8 3 -6 6 5 6 10 1 20 -5 23 -13 8 -22 33 -28 27 -7 -4 16
-47 39 -135 75 -21 8 -38 17 -38 20 0 3 16 -2 35 -10 48 -20 57 -17 16 5 l-34
18 27 5 c14 3 29 1 32 -3 3 -5 15 -8 27 -8 17 1 18 2 4 6 -16 4 -15 6 5 23
l23 19 -35 1 c-19 0 -42 -5 -50 -10z m210 -36 c0 -8 -4 -12 -10 -9 -5 3 -10
10 -10 16 0 5 5 9 10 9 6 0 10 -7 10 -16z m278 -96 c18 -18 14 -38 -7 -38 -23
0 -35 15 -27 35 7 18 18 19 34 3z m-69 -18 c27 -14 45 -64 33 -87 -12 -22 0
-49 17 -39 6 4 14 0 17 -8 3 -9 12 -16 20 -16 8 0 13 -4 12 -9 -2 -5 5 -16 14
-23 27 -20 30 -75 5 -93 -21 -15 -61 -11 -85 8 -17 13 -12 63 6 59 8 -1 11 2
7 7 -3 6 4 15 15 21 22 12 18 33 -4 24 -15 -6 -54 50 -72 103 -9 25 -9 30 2
26 13 -5 18 -17 15 -35 0 -5 6 -8 14 -8 8 0 15 5 15 10 0 6 -5 10 -11 10 -5 0
-8 3 -6 8 10 15 -21 29 -57 27 -23 -1 -32 1 -24 6 7 5 8 9 3 9 -6 0 -16 -5
-21 -10 -11 -11 -44 -3 -44 10 0 11 108 12 129 0z m-43 -41 c16 -13 47 -72 33
-64 -5 4 -9 1 -9 -4 0 -6 5 -11 12 -11 19 0 -3 -17 -32 -24 -24 -7 -24 -6 -6
8 24 19 14 21 -15 4 -18 -11 -23 -10 -45 15 -23 27 -34 64 -15 53 5 -3 11 1
15 9 3 8 1 17 -4 20 -6 4 -10 1 -10 -6 0 -7 -3 -10 -6 -6 -24 23 54 29 82 6z
m39 -139 c10 -11 14 -20 8 -20 -5 0 -18 9 -28 20 -10 11 -14 20 -8 20 5 0 18
-9 28 -20z m-67 -45 c22 -25 45 -45 51 -45 6 0 11 -7 11 -15 0 -8 14 -30 31
-48 17 -17 38 -42 46 -54 12 -18 19 -21 34 -12 16 8 22 4 39 -23 22 -36 25
-54 10 -63 -5 -3 8 -29 29 -57 22 -28 45 -63 52 -77 8 -14 24 -40 37 -58 13
-18 26 -52 29 -75 4 -42 4 -42 -33 32 -20 41 -39 69 -41 63 -3 -7 -9 -13 -14
-13 -6 0 -8 4 -5 8 3 5 -13 39 -34 76 -22 38 -40 72 -40 76 0 4 -11 15 -25 24
-14 9 -25 25 -25 36 0 10 -10 30 -22 42 -52 54 -108 120 -108 126 0 4 -12 15
-28 24 -38 23 -65 55 -57 67 11 19 22 12 63 -34z m-188 -3 c0 -13 -12 -22 -22
-16 -10 6 -1 24 13 24 5 0 9 -4 9 -8z m115 -32 c3 -5 2 -10 -4 -10 -5 0 -13 5
-16 10 -3 6 -2 10 4 10 5 0 13 -4 16 -10z m295 -30 c0 -5 -7 -10 -16 -10 -8 0
-12 5 -9 10 3 6 10 10 16 10 5 0 9 -4 9 -10z m154 -338 c2 -4 1 -14 -4 -22 -7
-11 -11 -11 -24 -1 -9 8 -16 17 -16 22 0 11 37 12 44 1z m-2174 -56 c0 -3 -4
-8 -10 -11 -5 -3 -10 -1 -10 4 0 6 5 11 10 11 6 0 10 -2 10 -4z m-70 -70 c0
-3 -4 -8 -10 -11 -5 -3 -10 -1 -10 4 0 6 5 11 10 11 6 0 10 -2 10 -4z m2190
-68 c30 -63 24 -80 -10 -23 -32 54 -35 65 -20 65 5 0 19 -19 30 -42z m80 -78
c0 -5 -2 -10 -4 -10 -3 0 -8 5 -11 10 -3 6 -1 10 4 10 6 0 11 -4 11 -10z m157
-67 c-3 -3 -11 -2 -17 2 -8 5 -7 11 2 22 12 15 13 14 16 -1 2 -10 1 -20 -1
-23z m-243 -568 c-4 -8 -8 -15 -10 -15 -2 0 -4 7 -4 15 0 8 4 15 10 15 5 0 7
-7 4 -15z m21 -108 c10 -8 15 -19 11 -25 -11 -18 -22 -14 -40 13 -19 29 -3 35
29 12z m-2501 -333 c3 -8 2 -12 -4 -9 -6 3 -10 10 -10 16 0 14 7 11 14 -7z
m2446 -22 c-6 -2 -7 -9 -4 -15 5 -9 4 -9 -5 -1 -6 6 -9 19 -5 28 5 14 9 15 15
4 5 -7 4 -14 -1 -16z m-145 -79 c0 -43 -22 -73 -52 -73 -25 0 -26 0 -8 20 38
42 7 18 -40 -31 -28 -29 -44 -49 -37 -45 6 4 13 4 13 -1 6 -34 5 -52 -1 -48
-4 2 -13 -7 -20 -20 -7 -14 -22 -25 -33 -25 -11 0 -79 -40 -151 -88 -163 -110
-255 -164 -270 -159 -6 2 8 14 32 26 87 44 357 234 364 255 4 11 12 40 18 63
14 56 49 96 112 127 65 33 74 32 73 -1z m99 0 c-11 -8 -18 -17 -16 -21 2 -3
-1 -8 -7 -10 -14 -5 -14 4 -2 27 6 10 18 18 27 18 15 0 14 -2 -2 -14z m-1877
-189 c13 -20 13 -29 3 -54 -7 -16 -21 -32 -32 -36 -16 -5 -3 -16 69 -59 86
-52 132 -90 121 -101 -3 -3 -13 2 -21 11 -15 14 -17 13 -25 -17 -8 -28 -11
-30 -17 -14 -5 11 -3 26 4 37 6 11 7 19 1 19 -13 0 -144 86 -177 116 -14 13
-23 27 -20 30 3 3 2 17 -4 31 -7 19 -4 28 15 48 28 28 60 24 83 -11z m-51
-151 c25 -19 27 -22 9 -22 -23 -1 -53 18 -107 68 -58 53 -46 67 15 19 30 -24
67 -53 83 -65z m1684 81 c0 -8 -5 -14 -12 -14 -6 0 -20 -8 -31 -17 -21 -19
-20 -16 2 29 14 27 41 28 41 2z m-71 -11 c-13 -15 -31 -33 -39 -40 -18 -15
-64 -17 -55 -3 3 6 18 10 33 10 22 0 24 2 12 11 -13 9 -13 10 0 6 8 -2 23 7
33 20 10 13 23 23 29 23 7 0 1 -12 -13 -27z m-207 -28 c0 -5 -5 -11 -11 -13
-6 -2 -11 4 -11 13 0 9 5 15 11 13 6 -2 11 -8 11 -13z m283 -16 c0 -8 -6 -13
-13 -11 -7 1 -26 -7 -42 -18 -33 -24 -46 -25 -53 -6 -6 16 29 53 40 43 4 -4
-2 -14 -13 -22 -10 -8 -16 -15 -13 -15 3 0 20 11 39 25 36 27 55 28 55 4z
m-224 -71 c-23 -9 -41 -21 -41 -26 0 -5 -12 -14 -27 -21 -20 -9 -29 -9 -37 0
-6 7 -6 9 -1 6 6 -3 35 14 65 38 42 32 58 40 69 31 10 -8 4 -14 -28 -28z m319
11 c0 -5 5 -7 10 -4 16 10 11 -21 -5 -35 -21 -17 -39 1 -30 29 7 22 25 29 25
10z m-1433 -81 c61 -23 84 -45 40 -41 l-22 3 23 -10 c18 -8 32 -30 18 -30 -19
0 -178 85 -186 100 -18 33 -26 34 127 -22z m-376 26 c16 -19 21 -44 9 -44 -15
0 -22 20 -8 20 7 1 -2 7 -19 15 -18 8 -33 17 -33 20 0 12 38 4 51 -11z m229
-24 c13 -9 12 -12 -4 -25 -11 -8 -18 -16 -15 -19 20 -18 305 -89 320 -80 14 8
21 -17 9 -31 -10 -12 -10 -15 0 -15 6 0 14 9 17 20 5 18 14 19 172 18 91 0
178 3 193 8 19 6 -9 9 -95 10 -146 1 -317 30 -317 54 0 13 73 8 82 -5 5 -6 8
-5 8 3 0 8 5 10 13 5 6 -4 17 -8 22 -10 6 -1 25 -6 43 -12 24 -7 32 -7 31 2
-3 24 1 37 12 37 7 0 10 -12 7 -27 l-4 -28 171 0 c132 1 179 4 211 17 35 13
42 14 40 2 -3 -20 -8 -23 -56 -28 -46 -5 -232 -44 -238 -51 -2 -2 24 -1 57 2
46 4 61 3 61 -7 0 -10 -22 -11 -102 -6 -165 12 -249 13 -245 1 2 -5 12 -9 21
-7 13 2 16 -1 12 -16 -5 -16 -2 -18 24 -14 19 3 30 0 30 -7 0 -7 -16 -11 -42
-10 -53 3 -68 10 -42 20 17 7 17 8 -5 8 -16 1 -21 5 -17 16 3 10 -1 15 -13 15
-11 0 -21 -4 -23 -9 -1 -5 -12 -11 -23 -13 -14 -2 -21 3 -23 19 -2 14 -8 20
-17 17 -16 -6 -127 17 -192 40 -22 8 -44 12 -47 9 -11 -11 -85 30 -102 55 -16
24 -16 25 2 18 34 -13 39 -11 36 12 -4 24 5 27 28 12z m69 -46 c14 -12 -19 -1
-35 12 -18 14 -18 14 6 3 14 -6 27 -13 29 -15z m193 2 c6 4 8 -3 6 -17 -1 -12
-9 -24 -15 -27 -17 -5 -27 23 -18 46 5 11 9 13 12 4 3 -6 9 -9 15 -6z m-152
-16 c0 -5 -7 -10 -15 -10 -8 0 -15 5 -15 10 0 6 7 10 15 10 8 0 15 -4 15 -10z
m235 -45 c22 -7 31 -13 20 -13 -11 0 -38 5 -60 13 -22 7 -31 13 -20 13 11 0
38 -5 60 -13z m858 -27 c7 -21 -12 -48 -34 -48 -22 0 -34 22 -25 45 7 18 53
20 59 3z m-73 -8 c0 -5 -4 -10 -10 -10 -5 0 -10 -7 -10 -15 0 -16 -12 -20 -23
-8 -4 3 1 14 11 24 19 20 32 24 32 9z m-90 -27 c0 -25 -69 -78 -82 -65 -6 6
-8 19 -4 29 6 15 8 15 16 3 8 -13 11 -13 22 -1 10 10 10 12 1 7 -8 -4 -13 -1
-13 8 0 11 19 23 58 35 1 1 2 -7 2 -16z m30 -3 c0 -5 -4 -10 -10 -10 -5 0 -10
5 -10 10 0 6 5 10 10 10 6 0 10 -4 10 -10z m-330 -19 c0 -8 -110 -25 -170 -26
-16 0 -27 -7 -30 -20 -7 -23 -39 -33 -51 -14 -12 20 9 49 34 48 34 -1 171 12
176 17 8 8 41 4 41 -5z m400 -1 c0 -5 -4 -10 -10 -10 -5 0 -10 5 -10 10 0 6 5
10 10 10 6 0 10 -4 10 -10z m-272 -18 c4 -13 -8 -15 -32 -6 -9 3 -14 10 -11
14 7 12 38 5 43 -8z"/>
<path d="M3310 3252 c0 -5 7 -13 16 -16 10 -4 14 -1 12 6 -5 15 -28 23 -28 10z"/>
<path d="M3325 3211 c-3 -5 -1 -12 5 -16 5 -3 10 1 10 9 0 18 -6 21 -15 7z"/>
<path d="M3350 3209 c0 -5 5 -7 10 -4 6 3 10 8 10 11 0 2 -4 4 -10 4 -5 0 -10
-5 -10 -11z"/>
<path d="M3290 3200 c0 -5 5 -10 11 -10 5 0 7 5 4 10 -3 6 -8 10 -11 10 -2 0
-4 -4 -4 -10z"/>
<path d="M3354 3035 c-9 -22 6 -47 29 -51 14 -2 16 2 11 19 -3 12 -12 28 -20
36 -11 13 -14 12 -20 -4z m20 -31 c3 -8 2 -12 -4 -9 -6 3 -10 10 -10 16 0 14
7 11 14 -7z"/>
<path d="M3279 1373 c-13 -16 -12 -17 4 -4 16 13 21 21 13 21 -2 0 -10 -8 -17
-17z"/>
<path d="M1479 1212 c-2 -12 -6 -27 -8 -32 -1 -3 -4 -20 -5 -37 -3 -29 -1 -33
19 -33 21 0 59 30 39 30 -5 0 -3 4 5 9 11 7 8 13 -14 27 -24 16 -25 19 -9 24
16 6 16 7 -4 12 -12 4 -23 3 -23 0z m35 -66 c-6 -16 -34 -30 -34 -18 0 5 5 13
12 20 16 16 29 15 22 -2z"/>
<path d="M2845 770 c3 -5 8 -10 11 -10 2 0 4 5 4 10 0 6 -5 10 -11 10 -5 0 -7
-4 -4 -10z"/>
<path d="M2190 702 c0 -5 7 -9 15 -9 8 0 15 4 15 9 0 4 -7 8 -15 8 -8 0 -15
-4 -15 -8z"/>
<path d="M1703 3591 c-10 -10 -29 -22 -43 -25 -19 -6 -21 -5 -10 3 22 16 -1
13 -30 -4 -21 -11 -22 -15 -9 -20 22 -8 93 11 109 30 7 8 9 15 4 16 -5 0 0 4
11 9 17 7 17 9 3 9 -10 1 -25 -7 -35 -18z"/>
<path d="M2970 3600 c-12 -7 -10 -9 8 -7 12 0 22 5 22 9 0 11 -12 10 -30 -2z"/>
<path d="M1934 3588 c-5 -8 -2 -9 10 -5 15 6 67 -21 86 -44 13 -15 50 -28 67
-23 13 4 15 3 4 -4 -19 -14 4 -26 26 -13 15 8 12 12 -22 27 -22 10 -59 31 -82
46 -44 30 -77 36 -89 16z"/>
<path d="M2657 3583 c20 -15 83 -17 83 -3 0 6 -3 10 -7 11 -5 0 -27 1 -51 2
-36 2 -40 0 -25 -10z"/>
<path d="M1900 3576 c0 -8 5 -18 10 -21 6 -3 10 3 10 14 0 12 -4 21 -10 21 -5
0 -10 -6 -10 -14z"/>
<path d="M2373 3583 c9 -14 56 -23 63 -12 3 5 -1 9 -8 9 -7 0 -24 3 -37 7 -16
4 -22 2 -18 -4z"/>
<path d="M2918 3583 c7 -3 16 -2 19 1 4 3 -2 6 -13 5 -11 0 -14 -3 -6 -6z"/>
<path d="M1355 3567 c-28 -36 -34 -55 -21 -66 19 -16 45 14 28 31 -9 9 -8 16
5 30 9 10 12 18 7 18 -5 -1 -13 -6 -19 -13z m5 -51 c0 -3 -4 -8 -10 -11 -5 -3
-10 -1 -10 4 0 6 5 11 10 11 6 0 10 -2 10 -4z"/>
<path d="M2905 3560 c-4 -6 7 -10 27 -9 27 0 30 2 13 9 -27 12 -33 12 -40 0z"/>
<path d="M3367 3552 c-18 -19 -6 -52 18 -52 25 0 37 36 19 54 -19 20 -18 20
-37 -2z m33 -23 c0 -5 -4 -9 -10 -9 -5 0 -10 7 -10 16 0 8 5 12 10 9 6 -3 10
-10 10 -16z"/>
<path d="M1711 3524 c-18 -19 -31 -37 -29 -39 1 -1 29 -5 60 -7 l57 -5 -24 23
c-14 13 -25 29 -25 36 1 7 18 -6 38 -29 38 -41 49 -47 85 -44 16 1 14 6 -11
31 -17 17 -36 30 -44 30 -7 0 -24 9 -38 20 -14 11 -28 20 -31 20 -3 0 -20 -16
-38 -36z"/>
<path d="M1001 3540 c-1 -8 -4 -26 -7 -40 -5 -22 -4 -23 6 -7 6 10 9 28 7 40
-2 12 -5 15 -6 7z"/>
<path d="M1395 3540 c-3 -5 -1 -10 4 -10 6 0 11 5 11 10 0 6 -2 10 -4 10 -3 0
-8 -4 -11 -10z"/>
<path d="M1541 3531 c-21 -13 5 -24 37 -16 25 7 25 8 7 15 -26 11 -28 11 -44
1z"/>
<path d="M1910 3532 c0 -4 20 -28 45 -52 24 -24 42 -47 39 -52 -3 -4 13 -8 36
-8 25 0 39 4 35 10 -3 6 -13 10 -21 10 -8 0 -39 23 -68 50 -52 49 -66 58 -66
42z"/>
<path d="M1636 3516 c-22 -7 -42 -18 -44 -24 -6 -19 26 -25 43 -8 9 9 20 16
25 16 4 0 10 7 14 15 3 8 4 15 3 14 -1 -1 -20 -7 -41 -13z"/>
<path d="M2953 3515 c-10 -10 -9 -16 4 -27 12 -9 15 -9 9 0 -11 18 9 15 25 -4
11 -14 11 -18 -4 -29 -16 -12 -16 -13 2 -18 15 -4 20 2 23 25 3 19 -1 32 -11
38 -17 9 -12 13 34 23 11 3 0 5 -25 5 -27 1 -50 -4 -57 -13z"/>
<path d="M2588 3513 c12 -2 30 -2 40 0 9 3 -1 5 -23 4 -22 0 -30 -2 -17 -4z"/>
<path d="M2810 3472 c63 -47 114 -67 65 -26 -25 21 -68 45 -110 62 -5 2 15
-14 45 -36z"/>
<path d="M1155 3460 c-8 -16 -15 -34 -15 -40 0 -18 22 -11 27 10 3 11 10 20
15 20 7 0 6 5 -1 13 -6 8 -8 17 -4 20 3 4 3 7 0 7 -4 0 -13 -13 -22 -30z"/>
<path d="M1473 3483 c-7 -2 -13 -9 -13 -14 0 -14 26 -10 40 6 10 12 10 15 -1
14 -8 0 -20 -3 -26 -6z"/>
<path d="M983 3451 c-3 -11 -14 -22 -25 -24 -13 -4 -17 -10 -12 -18 6 -10 9
-10 12 -1 2 7 8 12 14 12 10 0 3 -29 -18 -74 -10 -20 -11 -34 -3 -47 14 -27
21 -24 13 6 -4 18 -2 25 8 25 11 0 15 16 17 62 1 34 4 65 7 70 3 4 2 8 -1 8
-4 0 -9 -9 -12 -19z"/>
<path d="M1534 3461 c3 -4 -6 -6 -19 -3 -15 2 -25 0 -25 -7 0 -7 20 -11 51
-11 45 0 49 2 35 15 -15 16 -51 21 -42 6z"/>
<path d="M1643 3450 c-3 -11 -12 -20 -20 -20 -8 0 -29 -10 -45 -22 -17 -11
-53 -34 -82 -50 -62 -36 -23 -27 57 13 70 35 109 63 99 74 -4 5 -2 5 5 2 6 -4
19 -4 28 -1 13 5 14 8 3 15 -22 14 -40 10 -45 -11z"/>
<path d="M1760 3434 c24 -22 53 -47 62 -56 10 -10 21 -18 25 -18 4 0 20 -12
36 -27 19 -19 26 -22 22 -10 -8 19 19 25 30 7 3 -5 17 -10 31 -10 13 0 24 -3
24 -7 0 -5 24 -9 53 -11 48 -3 50 -2 32 12 -15 10 -22 11 -27 3 -6 -9 -8 -9
-8 1 0 6 -5 12 -11 12 -6 0 -39 14 -74 30 -35 17 -70 27 -79 24 -9 -3 -16 -2
-16 4 0 6 6 12 13 15 6 2 -7 14 -31 26 -23 12 -47 19 -51 16 -5 -3 -11 -1 -13
4 -1 5 -16 13 -33 17 -29 6 -29 5 15 -32z m190 -89 c14 -8 21 -14 15 -14 -5 0
-21 6 -35 14 -14 8 -20 14 -15 14 6 0 21 -6 35 -14z"/>
<path d="M1380 3433 c-19 -15 -53 -41 -76 -57 -62 -47 -117 -97 -111 -102 2
-3 29 16 58 41 30 26 84 65 121 88 37 23 67 45 68 50 0 14 -26 6 -60 -20z"/>
<path d="M1888 3430 c22 -21 76 -27 87 -10 4 6 -10 10 -34 10 -22 0 -43 5 -46
10 -3 6 -11 10 -17 10 -7 0 -2 -9 10 -20z"/>
<path d="M2115 3440 c3 -6 36 -10 72 -10 83 0 79 5 -10 13 -43 4 -66 3 -62 -3z"/>
<path d="M2333 3443 c9 -2 25 -2 35 0 9 3 1 5 -18 5 -19 0 -27 -2 -17 -5z"/>
<path d="M1191 3414 c0 -11 3 -14 6 -6 3 7 2 16 -1 19 -3 4 -6 -2 -5 -13z"/>
<path d="M1423 3407 c-10 -13 -25 -26 -33 -30 -13 -5 -13 -6 1 -6 8 -1 24 6
35 14 10 8 39 15 64 15 l45 1 -45 15 c-25 7 -46 14 -47 14 -1 0 -10 -11 -20
-23z"/>
<path d="M1670 3402 c-45 -23 -84 -46 -90 -52 -13 -13 -173 -60 -205 -60 -20
0 -34 -4 -31 -9 9 -14 -23 -36 -121 -85 -51 -25 -93 -51 -93 -57 0 -5 3 -8 8
-6 4 2 52 26 107 52 55 27 102 51 105 54 3 3 12 6 20 7 8 1 31 4 50 8 28 5 30
4 12 -4 -32 -14 -131 -82 -171 -119 -19 -17 -39 -28 -45 -24 -6 3 -8 2 -3 -2
4 -5 -3 -19 -15 -32 -12 -13 -19 -23 -15 -23 3 0 -14 -21 -39 -46 -24 -26 -42
-49 -39 -52 2 -3 42 35 88 84 86 91 264 228 313 240 38 10 135 61 148 79 13
17 70 40 61 25 -7 -11 9 -13 42 -4 33 9 18 24 -25 25 -33 1 -34 2 -12 9 21 7
22 8 5 9 -12 1 -36 -7 -55 -17z"/>
<path d="M2281 3415 c3 -2 30 -7 60 -9 29 -3 69 -10 88 -15 54 -17 47 -5 -8
13 -44 14 -151 23 -140 11z"/>
<path d="M2018 3403 c-38 -2 -68 -7 -68 -12 0 -10 129 -55 137 -47 4 3 2 6 -3
6 -6 0 -19 7 -30 15 -17 12 -13 12 30 0 56 -17 136 -20 136 -5 0 6 35 9 93 7
74 -3 103 -8 150 -30 32 -15 67 -37 77 -49 11 -13 19 -20 20 -16 1 21 -66 78
-108 92 -59 19 -193 37 -258 35 -27 -1 -62 0 -79 3 -16 2 -60 3 -97 1z m172
-40 c8 -8 -94 9 -103 17 -5 4 15 3 45 -2 29 -5 55 -12 58 -15z"/>
<path d="M2556 3399 c3 -5 17 -9 31 -9 32 0 24 11 -11 14 -14 2 -23 -1 -20 -5z"/>
<path d="M1130 3388 c0 -7 -3 -30 -6 -51 -5 -30 -4 -36 7 -32 15 6 21 95 7 95
-5 0 -8 -6 -8 -12z"/>
<path d="M2511 3375 c8 -7 28 -17 44 -20 28 -7 29 -6 10 7 -11 8 -31 18 -44
21 -21 5 -22 4 -10 -8z"/>
<path d="M3465 3371 c3 -5 1 -12 -5 -16 -16 -10 -12 -32 7 -39 9 -4 23 0 32 9
13 13 13 17 -7 35 -22 21 -37 27 -27 11z m25 -31 c0 -5 -4 -10 -10 -10 -5 0
-10 5 -10 10 0 6 5 10 10 10 6 0 10 -4 10 -10z"/>
<path d="M1355 3350 c3 -5 8 -10 11 -10 2 0 4 5 4 10 0 6 -5 10 -11 10 -5 0
-7 -4 -4 -10z"/>
<path d="M1765 3350 c-3 -5 3 -10 14 -10 11 0 23 5 26 10 3 6 -3 10 -14 10
-11 0 -23 -4 -26 -10z"/>
<path d="M1019 3323 c-13 -16 -12 -17 4 -4 9 7 17 15 17 17 0 8 -8 3 -21 -13z"/>
<path d="M2645 3330 c3 -5 8 -10 11 -10 2 0 4 5 4 10 0 6 -5 10 -11 10 -5 0
-7 -4 -4 -10z"/>
<path d="M2675 3330 c-3 -5 -1 -10 4 -10 6 0 11 5 11 10 0 6 -2 10 -4 10 -3 0
-8 -4 -11 -10z"/>
<path d="M2700 3322 c0 -5 14 -12 30 -14 17 -3 30 -1 30 4 0 4 -6 8 -14 8 -8
0 -21 3 -30 6 -9 3 -16 2 -16 -4z"/>
<path d="M865 3310 c-3 -6 1 -7 9 -4 18 7 21 14 7 14 -6 0 -13 -4 -16 -10z"/>
<path d="M1603 3304 c-18 -8 -33 -17 -33 -20 0 -3 4 -3 9 0 4 3 33 6 62 7 30
1 48 4 41 7 -6 2 -10 8 -6 13 8 13 -36 9 -73 -7z"/>
<path d="M1795 3310 c-19 -8 -19 -9 3 -9 12 -1 25 -8 28 -16 4 -8 13 -15 21
-15 11 0 10 5 -4 25 -20 27 -20 27 -48 15z"/>
<path d="M2780 3295 c6 -8 20 -17 31 -20 11 -4 18 -9 15 -13 -2 -4 5 -16 15
-26 11 -11 19 -14 19 -8 0 14 -67 82 -82 82 -7 0 -6 -5 2 -15z"/>
<path d="M865 3280 c4 -6 11 -8 16 -5 14 9 11 15 -7 15 -8 0 -12 -5 -9 -10z"/>
<path d="M1245 3267 c-43 -21 -81 -52 -96 -79 -6 -10 15 -1 51 23 33 22 73 42
90 46 38 7 47 19 17 25 -12 2 -40 -5 -62 -15z"/>
<path d="M1937 3279 c7 -7 15 -10 18 -7 3 3 -2 9 -12 12 -14 6 -15 5 -6 -5z"/>
<path d="M2934 3275 c22 -17 36 -19 36 -6 0 10 -24 21 -43 21 -7 0 -3 -7 7
-15z"/>
<path d="M2400 3276 c0 -2 9 -6 20 -9 11 -3 18 -1 14 4 -5 9 -34 13 -34 5z"/>
<path d="M1476 3239 c-32 -17 -56 -32 -53 -35 6 -7 117 48 117 58 0 10 4 12
-64 -23z"/>
<path d="M946 3234 c-8 -26 -66 -92 -66 -76 0 7 -7 12 -15 12 -8 0 -15 5 -15
10 0 14 27 12 33 -2 4 -8 6 -9 6 -2 1 6 -6 17 -15 24 -12 11 -18 10 -32 -3
-15 -16 -14 -18 6 -37 18 -17 20 -25 11 -42 -8 -15 -8 -23 2 -32 8 -8 10 -8 6
0 -4 6 2 19 13 29 30 27 82 113 77 127 -2 8 -7 5 -11 -8z"/>
<path d="M2153 3243 c9 -2 23 -2 30 0 6 3 -1 5 -18 5 -16 0 -22 -2 -12 -5z"/>
<path d="M1567 3230 c-16 -5 -34 -13 -40 -18 -7 -6 -31 -15 -54 -21 -33 -9
-49 -22 -74 -57 -17 -25 -29 -48 -26 -51 3 -3 17 13 31 36 14 22 35 45 46 51
26 14 45 4 29 -16 -6 -8 -7 -14 -2 -14 9 0 35 27 43 45 8 19 76 36 170 41 52
3 96 7 99 10 8 8 -193 2 -222 -6z"/>
<path d="M1880 3233 c0 -5 19 -19 43 -32 l42 -23 -35 30 c-35 31 -50 38 -50
25z"/>
<path d="M2220 3230 c14 -4 45 -8 70 -8 l45 1 -45 8 c-25 4 -56 7 -70 7 l-25
0 25 -8z"/>
<path d="M3430 3225 c-16 -20 -6 -45 20 -45 23 0 28 31 6 49 -10 9 -16 8 -26
-4z m30 -13 c0 -13 -12 -22 -22 -16 -10 6 -1 24 13 24 5 0 9 -4 9 -8z"/>
<path d="M1072 3155 c-111 -132 -210 -309 -266 -479 -14 -44 -25 -80 -24 -82
2 -1 12 5 24 15 13 10 35 60 57 126 34 104 117 282 155 331 9 12 46 54 81 93
34 39 57 71 50 71 -8 0 -42 -34 -77 -75z"/>
<path d="M2838 3198 c8 -8 8 -15 1 -24 -7 -9 -6 -12 5 -10 9 1 18 5 22 9 7 6
-19 37 -32 37 -5 0 -3 -5 4 -12z"/>
<path d="M3610 3190 c6 -11 13 -20 16 -20 2 0 0 9 -6 20 -6 11 -13 20 -16 20
-2 0 0 -9 6 -20z"/>
<path d="M1328 3142 c-24 -21 -57 -50 -73 -64 -28 -27 -28 -27 -4 -21 13 4 33
18 44 32 11 14 36 41 55 58 49 46 31 41 -22 -5z"/>
<path d="M2880 3175 c0 -2 33 -27 74 -55 107 -71 110 -82 18 -55 -34 11 -59
26 -76 48 -14 17 -26 26 -26 19 0 -7 15 -27 34 -46 l34 -33 -36 -10 c-30 -8
-19 -9 53 -5 97 5 125 -3 173 -48 13 -12 25 -20 28 -17 3 2 -21 27 -53 53 -32
27 -60 52 -63 55 -7 9 -147 99 -154 99 -3 0 -6 -2 -6 -5z"/>
<path d="M1568 3160 c13 -5 21 -14 18 -19 -3 -5 3 -7 14 -4 25 7 27 -14 3 -21
-10 -2 -31 -4 -48 -4 -53 0 -63 -2 -79 -17 -19 -20 -33 0 -14 22 7 9 -7 4 -32
-12 -25 -16 -51 -28 -57 -28 -7 0 -13 -3 -13 -7 0 -3 -16 -25 -36 -48 -19 -23
-31 -42 -26 -42 5 0 12 3 16 8 4 4 13 7 19 7 7 1 11 7 9 14 -6 28 17 38 81 35
34 -2 76 1 92 6 28 9 27 9 -12 7 -24 -1 -43 1 -43 5 0 5 3 8 8 9 10 1 38 5 97
13 36 5 46 5 35 -3 -8 -6 -23 -11 -32 -11 -10 0 -18 -4 -18 -10 0 -18 132 38
166 71 19 18 32 34 30 36 -2 2 -20 -4 -40 -14 -32 -15 -42 -15 -79 -5 -68 21
-85 24 -59 12z m-128 -90 c0 -5 -4 -10 -10 -10 -5 0 -10 5 -10 10 0 6 5 10 10
10 6 0 10 -4 10 -10z"/>
<path d="M1737 3126 c-15 -19 -47 -47 -72 -61 -55 -33 -171 -66 -202 -59 -29
8 -30 -4 0 -16 18 -7 15 -9 -21 -9 -30 -1 -42 -5 -40 -13 5 -15 86 -12 105 4
7 5 17 7 23 3 5 -3 10 -2 10 3 0 4 24 16 53 25 72 23 143 69 162 107 24 47 13
57 -18 16z"/>
<path d="M3480 3145 c-10 -12 -10 -18 0 -30 7 -8 18 -15 25 -15 21 0 25 27 6
44 -16 15 -19 15 -31 1z m30 -15 c0 -5 -4 -10 -10 -10 -5 0 -10 5 -10 10 0 6
5 10 10 10 6 0 10 -4 10 -10z"/>
<path d="M2085 3140 c11 -5 29 -8 40 -8 16 0 15 2 -5 8 -34 11 -60 11 -35 0z"/>
<path d="M1336 3106 c-28 -38 -31 -46 -16 -46 5 0 19 18 30 40 25 49 21 51
-14 6z"/>
<path d="M3337 3129 c7 -7 15 -10 18 -7 3 3 -2 9 -12 12 -14 6 -15 5 -6 -5z"/>
<path d="M1062 3085 c-18 -25 -36 -55 -41 -68 -5 -13 -15 -30 -23 -38 -43 -47
-144 -301 -132 -333 4 -9 1 -16 -6 -16 -8 0 -10 -10 -5 -32 4 -20 3 -28 -3
-20 -5 8 -13 -15 -20 -65 -14 -93 -15 -146 -3 -138 19 11 63 102 81 166 10 37
23 77 30 89 6 12 9 24 6 28 -11 10 -28 -16 -32 -49 -2 -18 -11 -43 -19 -55 -8
-13 -15 -31 -15 -41 0 -10 -7 -27 -16 -38 -14 -18 -14 -17 -9 20 7 50 26 117
37 129 14 16 9 39 -6 33 -36 -14 36 105 94 155 36 31 50 50 50 68 -1 23 -3 22
-20 -12 -20 -37 -34 -51 -58 -54 -9 -2 -10 1 -3 9 5 7 19 39 32 72 24 65 75
139 90 129 5 -3 9 6 9 20 0 16 6 26 15 26 10 0 15 10 15 30 0 17 -3 30 -7 30
-5 -1 -23 -21 -41 -45z"/>
<path d="M2178 3123 c7 -3 16 -2 19 1 4 3 -2 6 -13 5 -11 0 -14 -3 -6 -6z"/>
<path d="M3700 3121 c0 -6 4 -13 10 -16 6 -3 7 1 4 9 -7 18 -14 21 -14 7z"/>
<path d="M773 3083 c4 -3 0 -14 -9 -24 -18 -20 -11 -39 15 -39 31 0 43 23 25
48 -8 12 -20 22 -26 22 -6 0 -8 -3 -5 -7z m27 -38 c0 -8 -4 -15 -10 -15 -5 0
-10 7 -10 15 0 8 5 15 10 15 6 0 10 -7 10 -15z"/>
<path d="M1978 3063 c7 -3 16 -2 19 1 4 3 -2 6 -13 5 -11 0 -14 -3 -6 -6z"/>
<path d="M2148 3053 c7 -3 16 -2 19 1 4 3 -2 6 -13 5 -11 0 -14 -3 -6 -6z"/>
<path d="M1247 3033 c-4 -6 -15 -9 -26 -6 -13 3 -27 -6 -47 -34 -16 -21 -37
-47 -47 -58 -10 -11 -23 -29 -29 -40 -9 -17 -8 -17 11 3 12 12 25 22 29 22 4
0 14 13 23 28 12 22 24 28 54 30 48 3 47 3 43 39 -2 17 -6 23 -11 16z m-7 -32
c0 -5 -11 -11 -25 -14 -24 -4 -25 -3 -9 14 16 18 34 17 34 0z"/>
<path d="M712 2982 c-16 -26 -35 -63 -41 -82 -6 -19 -27 -50 -46 -69 -19 -19
-35 -43 -35 -54 0 -16 8 -11 45 25 25 25 45 53 45 62 0 17 38 95 66 133 9 12
11 24 6 27 -6 3 -23 -15 -40 -42z"/>
<path d="M3624 3020 c-12 -5 -25 -14 -29 -20 -4 -6 -16 -8 -27 -4 -11 3 -35 3
-54 0 -46 -9 -41 -39 17 -85 24 -20 36 -26 26 -15 -16 20 -16 22 3 39 19 17
21 17 38 2 26 -24 59 -21 77 7 26 39 -10 91 -51 76z m34 -32 c14 -14 -2 -48
-23 -48 -21 0 -37 34 -23 48 7 7 17 12 23 12 6 0 16 -5 23 -12z m-100 -21 c2
-8 -2 -18 -8 -22 -15 -9 -45 19 -36 33 9 15 41 8 44 -11z"/>
<path d="M2826 3005 c-4 -13 -2 -14 14 -5 23 13 26 20 6 20 -8 0 -16 -7 -20
-15z"/>
<path d="M1375 3000 c3 -5 12 -7 20 -3 21 7 19 13 -6 13 -11 0 -18 -4 -14 -10z"/>
<path d="M1070 2990 c-11 -7 -11 -10 -2 -10 7 0 11 -4 7 -10 -3 -5 -12 -7 -20
-3 -11 4 -13 1 -9 -11 3 -9 12 -16 20 -16 19 0 18 -7 -7 -42 -25 -35 -20 -47
7 -17 13 14 19 37 20 70 1 27 1 49 0 49 0 0 -8 -5 -16 -10z"/>
<path d="M2937 2990 c-44 -8 -83 -34 -105 -70 -13 -21 -10 -19 16 7 38 37 107
56 172 48 70 -9 180 -63 224 -112 39 -42 56 -52 56 -34 0 11 -90 101 -102 101
-4 0 -27 9 -51 19 -84 38 -153 51 -210 41z"/>
<path d="M1022 2940 c0 -14 2 -19 5 -12 2 6 2 18 0 25 -3 6 -5 1 -5 -13z"/>
<path d="M1251 2944 c0 -11 3 -14 6 -6 3 7 2 16 -1 19 -3 4 -6 -2 -5 -13z"/>
<path d="M639 2932 c12 -9 11 -16 -8 -49 l-22 -38 26 29 c28 30 30 57 5 63
-13 4 -13 3 -1 -5z"/>
<path d="M827 2892 c-57 -44 -73 -70 -23 -37 43 28 30 8 -36 -55 -59 -57 -85
-77 -58 -45 7 9 10 18 7 21 -9 9 -26 -30 -33 -75 -4 -28 -2 -46 7 -58 11 -14
9 -14 -9 1 -22 19 -22 19 -16 1 5 -13 4 -16 -4 -11 -15 9 -16 -23 -1 -44 9
-13 10 -12 5 3 -3 9 -1 17 5 17 6 0 13 -9 16 -20 8 -30 21 -24 26 13 2 19 4
10 5 -23 0 -31 -3 -47 -6 -37 -7 16 -10 16 -30 -8 -12 -14 -22 -31 -22 -38 0
-7 -5 -18 -12 -25 -16 -16 -18 -50 -3 -56 7 -2 10 -17 7 -35 -2 -19 0 -31 7
-31 6 0 11 17 11 41 0 24 -4 38 -10 34 -5 -3 -10 -1 -10 4 0 6 5 11 11 11 5 0
15 14 21 31 13 38 23 29 20 -19 l-1 -37 13 30 c8 17 19 64 25 105 20 128 44
189 136 353 9 16 15 30 13 31 -2 2 -29 -17 -61 -42z m-44 -112 c-9 -16 -21
-30 -26 -30 -9 0 -1 17 21 43 23 26 25 21 5 -13z m-33 -59 c-5 -11 -7 -27 -3
-37 5 -13 3 -16 -10 -11 -9 3 -19 2 -22 -3 -9 -14 -25 -12 -25 2 0 14 50 68
62 68 5 0 4 -9 -2 -19z m-11 -96 c0 -20 0 -20 -9 0 -5 11 -9 27 -9 35 -1 13 0
13 9 0 5 -8 9 -24 9 -35z"/>
<path d="M1430 2928 c0 -4 22 -31 48 -58 53 -55 77 -61 137 -36 35 15 44 29
25 41 -5 3 -10 0 -10 -7 0 -7 -15 -18 -34 -24 -43 -13 -83 1 -115 42 -21 27
-21 29 -4 35 13 4 10 7 -15 11 -17 2 -32 1 -32 -4z"/>
<path d="M1312 2918 c-17 -17 -15 -26 11 -39 21 -12 21 -11 7 7 -8 10 -10 16
-6 12 5 -4 15 -3 22 3 7 5 25 12 40 15 46 8 41 14 -12 14 -28 0 -55 -5 -62
-12z"/>
<path d="M1240 2914 c-66 -22 -100 -37 -100 -45 0 -6 4 -8 10 -4 9 6 31 -30
44 -72 6 -17 3 -23 -8 -23 -9 0 -16 -4 -16 -8 0 -8 -43 -32 -55 -32 -3 0 0 11
5 24 7 19 4 30 -11 49 -13 17 -15 27 -7 29 12 4 4 38 -9 38 -11 0 -69 -88 -83
-124 -11 -30 -6 -31 41 -12 23 10 62 -25 53 -47 -4 -12 -13 -16 -25 -12 -23 7
-23 5 -5 -29 l13 -26 18 41 c11 22 39 57 64 77 25 21 49 42 53 47 13 17 9 35
-7 35 -8 0 -15 7 -15 15 0 8 -6 15 -12 15 -8 1 -6 6 4 14 10 7 15 16 11 19 -3
4 -2 7 4 7 5 0 16 -18 23 -40 7 -21 17 -37 22 -34 4 3 6 10 3 15 -4 5 -1 9 4
9 6 0 11 5 11 11 0 6 -7 8 -16 5 -11 -4 -15 -2 -11 8 3 8 1 17 -6 20 -7 2 -2
5 9 5 12 1 24 8 28 16 5 15 -5 18 -34 9z m-168 -124 c-5 -33 -32 -64 -32 -37
0 23 18 67 28 67 5 0 7 -13 4 -30z m15 -35 c0 -8 -4 -15 -9 -15 -10 0 -11 14
-1 23 9 10 10 9 10 -8z"/>
<path d="M3631 2872 c-8 -15 -6 -23 8 -36 10 -9 21 -13 24 -9 12 11 8 40 -7
52 -12 10 -17 8 -25 -7z m29 -22 c0 -5 -4 -10 -10 -10 -5 0 -10 5 -10 10 0 6
5 10 10 10 6 0 10 -4 10 -10z"/>
<path d="M1406 2865 c-10 -8 -24 -12 -30 -8 -6 3 -8 2 -3 -2 4 -5 0 -16 -8
-25 -14 -15 -14 -18 -1 -23 10 -4 13 -1 10 7 -3 8 -1 17 5 21 6 3 11 2 11 -3
0 -11 30 -9 55 5 16 9 17 13 6 27 -16 19 -21 19 -45 1z m34 -15 c0 -5 -4 -10
-10 -10 -5 0 -10 5 -10 10 0 6 5 10 10 10 6 0 10 -4 10 -10z"/>
<path d="M1303 2854 c-20 -21 -16 -42 3 -22 9 9 15 21 13 26 -2 6 -9 4 -16 -4z"/>
<path d="M1019 2823 c-19 -24 -51 -94 -45 -100 2 -3 18 23 35 56 32 64 33 72
10 44z"/>
<path d="M1420 2806 c0 -2 7 -7 16 -10 8 -3 12 -2 9 4 -6 10 -25 14 -25 6z"/>
<path d="M2951 2773 c-48 -16 -105 -81 -130 -148 -20 -54 -31 -137 -11 -90 4
11 16 47 25 80 22 76 81 140 140 151 57 10 147 -14 160 -44 5 -12 19 -25 30
-28 37 -11 53 -35 91 -130 30 -76 46 -103 80 -133 51 -45 124 -77 124 -55 0
13 -72 54 -96 54 -20 0 -59 58 -89 130 -14 36 -32 78 -40 94 -11 25 -11 34 0
57 13 24 12 30 -6 53 -23 29 -60 34 -79 11 -14 -17 -41 -20 -55 -6 -16 15
-105 17 -144 4z m262 -25 c5 -16 -10 -48 -23 -48 -16 0 -39 31 -34 45 7 18 51
20 57 3z"/>
<path d="M965 2769 c-4 -6 -5 -12 -2 -15 2 -3 7 2 10 11 7 17 1 20 -8 4z"/>
<path d="M1208 2739 c-21 -28 -26 -44 -25 -90 1 -38 -4 -65 -17 -83 -10 -15
-20 -25 -23 -22 -4 3 -17 -12 -30 -35 -23 -41 -20 -72 9 -81 8 -3 15 -33 18
-79 7 -76 4 -99 -11 -99 -4 0 -6 7 -2 16 3 9 0 41 -7 72 -19 86 -21 91 -32 52
-5 -19 -18 -47 -29 -62 -19 -27 -19 -27 0 -37 23 -13 34 -14 27 -3 -2 4 -1 14
4 22 6 9 11 0 18 -31 7 -33 6 -50 -4 -66 -21 -34 -17 -37 12 -6 42 44 84 141
84 194 0 51 -7 64 -27 48 -10 -9 -13 -8 -13 2 0 10 -3 10 -11 2 -9 -9 -16 -9
-29 0 -17 10 -17 13 -3 34 9 13 35 32 60 43 42 19 44 21 40 57 -2 21 -9 48
-15 60 -9 17 -9 28 0 48 13 30 31 14 22 -21 -4 -14 0 -23 12 -28 26 -10 27 -3
12 65 l-14 63 -26 -35z m-47 -436 c-12 -20 -14 -14 -5 12 4 9 9 14 11 11 3 -2
0 -13 -6 -23z"/>
<path d="M3690 2749 c0 -6 -7 -17 -15 -25 -21 -22 -19 -41 9 -69 29 -29 50
-24 66 16 11 25 10 32 -5 49 -10 11 -24 20 -32 20 -8 0 -11 5 -8 10 3 6 1 10
-4 10 -6 0 -11 -5 -11 -11z m45 -60 c0 -25 -21 -35 -44 -20 -8 5 -11 16 -6 30
9 30 50 22 50 -10z"/>
<path d="M3851 2746 c-9 -11 -10 -20 -1 -35 9 -17 15 -19 30 -11 23 12 26 30
8 48 -16 16 -23 15 -37 -2z m29 -16 c0 -5 -4 -10 -10 -10 -5 0 -10 5 -10 10 0
6 5 10 10 10 6 0 10 -4 10 -10z"/>
<path d="M588 2720 c-14 -34 -17 -163 -4 -219 3 -14 2 -29 -3 -35 -15 -20 -34
-224 -29 -308 7 -104 36 -177 84 -210 38 -26 43 -42 17 -53 -13 -5 -28 5 -55
37 -21 24 -38 38 -38 32 0 -16 79 -104 94 -104 7 0 25 13 41 29 26 29 28 33
23 101 -3 39 -1 73 3 76 5 3 9 17 9 32 -1 26 -1 26 -15 8 -14 -19 -15 -19 -15
7 0 15 5 27 10 27 6 0 10 23 10 50 0 36 -4 50 -14 50 -20 0 -23 -15 -25 -110
-1 -52 4 -95 12 -110 7 -14 11 -35 9 -47 -8 -56 -93 -1 -111 71 -14 56 -14
109 -1 101 14 -9 12 2 -5 28 -19 29 -21 65 -12 152 11 96 27 156 40 148 7 -4
8 2 2 18 -14 45 -17 111 -6 152 7 26 8 55 2 77 l-8 35 -15 -35z m119 -542 c-2
-13 -4 -5 -4 17 -1 22 1 32 4 23 2 -10 2 -28 0 -40z"/>
<path d="M1340 2730 c8 -5 24 -9 35 -9 20 0 20 0 0 9 -11 5 -27 9 -35 9 -13 1
-13 0 0 -9z"/>
<path d="M976 2653 c-48 -161 -64 -201 -94 -241 -18 -24 -32 -45 -30 -46 2 -1
11 -7 20 -15 15 -11 17 -9 16 19 -1 17 5 36 11 43 11 10 12 4 7 -28 -11 -74
-15 -156 -7 -150 7 4 11 20 25 111 1 11 6 26 10 32 3 5 2 12 -4 14 -5 1 -7 14
-3 26 4 17 8 20 14 11 5 -9 8 -3 8 16 0 30 3 48 14 75 3 8 8 37 12 63 3 26 13
63 21 82 16 40 17 45 5 45 -4 0 -16 -26 -25 -57z"/>
<path d="M1601 2706 c2 -2 15 -9 29 -15 24 -11 24 -11 6 3 -16 13 -49 24 -35
12z"/>
<path d="M1388 2693 c7 -3 16 -2 19 1 4 3 -2 6 -13 5 -11 0 -14 -3 -6 -6z"/>
<path d="M3350 2674 c0 -8 5 -12 10 -9 6 4 8 11 5 16 -9 14 -15 11 -15 -7z"/>
<path d="M1480 2660 c-14 -4 -44 -8 -67 -9 -23 -1 -44 -5 -47 -9 -2 -4 25 -5
62 0 37 4 75 7 85 7 10 1 15 6 12 11 -7 11 -10 11 -45 0z"/>
<path d="M2988 2651 c-59 -13 -160 -107 -157 -146 0 -5 6 -1 12 9 23 37 91 97
125 112 47 19 68 18 92 -6 17 -17 20 -33 20 -102 0 -46 4 -88 8 -94 12 -19 65
-41 114 -48 25 -4 52 -14 58 -21 7 -8 17 -15 23 -15 31 0 -30 35 -104 59 l-84
28 3 60 c4 75 -12 138 -41 158 -23 16 -27 16 -69 6z"/>
<path d="M3836 2647 c3 -10 9 -15 12 -12 3 3 0 11 -7 18 -10 9 -11 8 -5 -6z"/>
<path d="M1550 2640 c8 -5 20 -10 25 -10 6 0 3 5 -5 10 -8 5 -19 10 -25 10 -5
0 -3 -5 5 -10z"/>
<path d="M1241 2598 c0 -28 2 -30 9 -13 12 28 12 45 0 45 -5 0 -10 -15 -9 -32z"/>
<path d="M3762 2616 l-23 -12 21 -19 c19 -17 22 -18 37 -2 15 15 15 19 3 31
-12 12 -19 12 -38 2z m28 -16 c0 -5 -4 -10 -10 -10 -5 0 -10 5 -10 10 0 6 5
10 10 10 6 0 10 -4 10 -10z"/>
<path d="M798 2583 c-20 -21 -26 -36 -23 -63 3 -46 35 -56 35 -11 0 24 -3 29
-17 25 -14 -5 -14 -2 3 13 19 17 42 63 32 63 -3 0 -16 -12 -30 -27z"/>
<path d="M1127 2603 c-4 -3 -7 -11 -7 -17 0 -6 5 -5 12 2 6 6 9 14 7 17 -3 3
-9 2 -12 -2z"/>
<path d="M3910 2565 c19 -19 36 -35 39 -35 3 0 -10 16 -29 35 -19 19 -36 35
-39 35 -3 0 10 -16 29 -35z"/>
<path d="M1094 2575 c-3 -8 -4 -20 -2 -27 3 -7 7 -1 10 15 6 29 1 36 -8 12z"/>
<path d="M1016 2558 c3 -5 10 -6 15 -3 13 9 11 12 -6 12 -8 0 -12 -4 -9 -9z"/>
<path d="M1000 2546 c0 -4 7 -14 15 -22 8 -9 15 -11 15 -6 0 5 -7 15 -15 22
-8 7 -15 9 -15 6z"/>
<path d="M1050 2530 c6 -11 13 -20 16 -20 2 0 0 9 -6 20 -6 11 -13 20 -16 20
-2 0 0 -9 6 -20z"/>
<path d="M1095 2519 c-4 -6 -5 -12 -2 -15 2 -3 7 2 10 11 7 17 1 20 -8 4z"/>
<path d="M3411 2494 c0 -11 3 -14 6 -6 3 7 2 16 -1 19 -3 4 -6 -2 -5 -13z"/>
<path d="M1071 2484 c0 -11 3 -14 6 -6 3 7 2 16 -1 19 -3 4 -6 -2 -5 -13z"/>
<path d="M3579 2495 c-6 -5 12 -128 36 -245 8 -42 15 -91 15 -110 l1 -35 19
24 c11 12 18 27 15 31 -4 7 -22 121 -29 187 -2 12 -8 29 -16 37 -7 9 -8 16 -2
16 6 0 6 16 -2 47 -11 43 -25 61 -37 48z"/>
<path d="M3856 2473 c-4 -9 0 -23 9 -32 13 -14 17 -14 32 1 13 14 14 20 3 32
-16 21 -36 20 -44 -1z m34 -13 c0 -5 -4 -10 -10 -10 -5 0 -10 5 -10 10 0 6 5
10 10 10 6 0 10 -4 10 -10z"/>
<path d="M1027 2453 c-8 -16 -12 -33 -10 -39 2 -6 -3 -11 -11 -11 -8 0 -13 4
-10 8 2 4 0 10 -6 14 -6 4 -10 -5 -10 -20 0 -23 3 -25 23 -19 12 3 22 7 23 8
1 0 6 10 12 21 11 19 11 19 11 -5 0 -14 -6 -33 -13 -43 -12 -15 -18 -17 -36
-7 -12 6 -24 9 -27 6 -9 -9 6 -38 17 -31 5 3 10 1 10 -5 0 -6 -9 -10 -21 -8
-16 2 -24 -5 -34 -34 -7 -21 -9 -38 -5 -38 5 0 32 22 60 49 46 42 54 55 61
100 12 79 -7 108 -34 54z"/>
<path d="M3730 2455 c-11 -13 -10 -14 4 -9 9 3 16 2 16 -4 0 -6 -6 -13 -12
-15 -8 -3 -7 -6 4 -6 21 -1 30 12 22 33 -8 20 -18 20 -34 1z"/>
<path d="M718 2418 c-9 -13 -19 -38 -23 -56 -3 -18 -10 -30 -15 -27 -5 3 -11
-1 -13 -7 -8 -18 -27 10 -27 39 0 12 -3 24 -8 27 -4 2 -6 -13 -4 -35 2 -22 -1
-46 -8 -54 -16 -20 -11 -19 44 5 40 18 46 25 47 53 1 30 1 30 8 7 7 -22 8 -19
13 20 6 55 5 57 -14 28z"/>
<path d="M746 2404 c-3 -9 -6 -36 -6 -61 0 -39 2 -44 15 -33 8 7 14 20 13 29
-2 10 4 15 15 15 27 -3 22 41 -7 54 -20 9 -25 8 -30 -4z"/>
<path d="M832 2304 c4 -40 1 -68 -7 -84 -19 -35 -9 -43 26 -23 27 16 29 22 29
75 0 32 -4 58 -9 58 -5 0 -17 8 -27 17 -16 17 -17 15 -12 -43z"/>
<path d="M3814 2335 c-4 -8 -11 -12 -18 -8 -6 3 -2 -3 8 -15 11 -12 25 -22 31
-22 18 0 27 30 14 46 -15 18 -28 18 -35 -1z m26 -15 c0 -5 -4 -10 -10 -10 -5
0 -10 5 -10 10 0 6 5 10 10 10 6 0 10 -4 10 -10z"/>
<path d="M3106 2291 c-9 -10 -16 -24 -16 -32 0 -12 -2 -11 -10 1 -8 12 -10 10
-10 -9 0 -13 3 -22 6 -18 3 3 17 -6 30 -20 l24 -26 20 24 c26 32 25 63 -4 82
-22 15 -25 15 -40 -2z m43 -24 c8 -10 7 -19 -4 -33 -13 -18 -15 -18 -31 -2
-14 14 -15 20 -4 32 15 19 24 20 39 3z"/>
<path d="M672 2291 c-10 -6 -10 -10 2 -20 12 -10 17 -8 26 8 12 23 -2 29 -28
12z"/>
<path d="M783 2289 c-9 -9 -9 -16 -2 -25 17 -21 6 -68 -18 -79 -18 -7 -23 -18
-23 -45 l0 -35 38 39 c20 21 32 40 27 42 -6 2 -9 22 -7 43 5 55 0 75 -15 60z"/>
<path d="M624 2276 c-3 -7 -1 -29 4 -47 l9 -34 4 48 c4 45 -5 63 -17 33z"/>
<path d="M973 2254 c-70 -46 -77 -62 -69 -148 4 -39 9 -84 10 -101 5 -66 38
-142 68 -160 36 -21 60 -7 41 24 -7 11 -8 23 -2 32 5 8 9 30 8 49 l0 35 -15
-30 -14 -30 5 35 c3 19 12 40 20 46 17 12 21 29 5 19 -6 -4 -10 5 -10 19 0 32
-10 33 -40 2 -15 -17 -21 -33 -18 -50 3 -15 1 -26 -3 -26 -5 0 -9 -8 -10 -17
-1 -10 -7 7 -15 37 l-14 55 45 42 c48 44 48 69 0 27 -37 -31 -63 -34 -32 -2
11 11 23 33 71 125 12 26 53 31 53 8 0 -8 -4 -15 -9 -15 -5 0 -1 -11 8 -25 8
-13 13 -29 9 -35 -3 -5 -1 -10 6 -10 7 0 9 9 6 22 -3 11 0 36 8 54 12 30 12
32 -8 37 -12 2 -29 7 -37 10 -8 3 -38 -10 -67 -29z m-42 -81 c-11 -21 -20 -32
-21 -25 0 17 30 75 36 69 3 -3 -4 -22 -15 -44z m67 -165 c-2 -6 -10 -14 -16
-16 -7 -2 -10 2 -6 12 7 18 28 22 22 4z m-21 -80 c-3 -7 -5 -2 -5 12 0 14 2
19 5 13 2 -7 2 -19 0 -25z"/>
<path d="M3420 2271 c0 -5 5 -13 10 -16 6 -3 10 -2 10 4 0 5 -4 13 -10 16 -5
3 -10 2 -10 -4z"/>
<path d="M2577 2229 c7 -7 15 -10 18 -7 3 3 -2 9 -12 12 -14 6 -15 5 -6 -5z"/>
<path d="M2620 2226 c0 -2 7 -7 16 -10 8 -3 12 -2 9 4 -6 10 -25 14 -25 6z"/>
<path d="M854 2182 c-24 -19 -37 -49 -25 -56 10 -6 54 51 49 64 -2 5 -12 1
-24 -8z"/>
<path d="M3698 2163 c-12 -13 -18 -26 -15 -30 4 -3 18 6 32 21 16 17 32 26 41
22 9 -3 18 -6 20 -6 2 0 4 -5 4 -11 0 -6 -8 -8 -19 -4 -11 3 -22 1 -26 -5 -3
-5 -1 -10 5 -10 6 0 4 -9 -5 -23 -13 -21 -13 -25 1 -45 8 -12 21 -22 29 -22 8
0 21 10 29 22 14 20 14 24 0 45 -8 13 -12 28 -9 34 11 16 -15 39 -41 37 -14
-2 -34 -13 -46 -25z m87 -74 c0 -20 -39 -17 -43 4 -3 13 2 16 20 14 13 -2 23
-10 23 -18z"/>
<path d="M985 2170 c-3 -5 -1 -10 4 -10 6 0 11 5 11 10 0 6 -2 10 -4 10 -3 0
-8 -4 -11 -10z"/>
<path d="M640 2148 c0 -9 5 -20 10 -23 6 -4 7 -11 4 -17 -4 -7 -2 -8 4 -4 16
9 15 18 -3 42 -13 17 -14 17 -15 2z"/>
<path d="M3233 2142 c-7 -4 -24 -34 -38 -65 -21 -48 -25 -73 -25 -152 0 -51 4
-96 8 -99 5 -3 6 33 4 78 -5 91 12 163 50 211 21 27 21 39 1 27z"/>
<path d="M3607 2143 c-11 -11 -8 -95 3 -88 14 9 12 -5 -5 -35 -22 -38 -18 -59
5 -25 16 24 19 41 14 90 -6 64 -7 68 -17 58z"/>
<path d="M782 2110 l-23 -30 25 0 c16 0 25 7 30 22 9 36 -8 41 -32 8z"/>
<path d="M3703 2120 c-7 -25 -33 -27 -33 -2 -1 15 -2 15 -15 -3 -11 -14 -13
-32 -9 -69 5 -33 4 -47 -4 -43 -22 14 -57 -70 -92 -223 -7 -30 -17 -61 -23
-68 -8 -10 -7 -12 4 -10 30 7 20 -39 -18 -76 -36 -36 -37 -36 -8 -22 35 18 45
20 45 6 0 -5 -7 -10 -15 -10 -8 0 -15 -4 -15 -10 0 -16 15 -12 34 9 17 19 18
73 2 99 -13 22 11 13 28 -10 15 -22 16 -22 14 -3 -1 11 3 36 9 55 15 47 27
118 24 153 -1 15 4 37 10 48 8 16 13 18 25 8 8 -7 12 -20 9 -30 -4 -11 -2 -19
5 -19 6 0 8 5 5 10 -3 6 -1 10 5 10 6 0 10 -8 8 -17 -2 -10 -11 -17 -21 -17
-9 1 -14 -2 -11 -7 3 -5 -2 -9 -10 -9 -9 0 -13 -6 -10 -13 6 -18 -44 -269 -56
-281 -6 -6 -10 -17 -10 -25 0 -32 40 45 51 97 6 29 17 56 25 59 10 4 12 16 9
42 -6 36 8 87 35 129 23 34 32 26 26 -24 -4 -39 -1 -50 17 -65 12 -10 29 -18
38 -19 19 0 59 36 59 53 0 24 -30 56 -61 62 -29 7 -30 8 -13 26 29 32 -8 75
-46 51 -16 -10 -17 -7 -10 24 4 19 4 34 0 34 -13 0 -25 -23 -22 -42 4 -21 -24
-25 -31 -5 -4 10 -6 10 -6 0 -1 -15 -21 -18 -21 -3 0 5 18 21 40 35 36 22 40
30 40 65 0 21 5 42 10 45 13 8 13 25 -1 25 -6 0 -13 -9 -16 -20z m-23 -45 c0
-8 -4 -15 -10 -15 -5 0 -10 7 -10 15 0 8 5 15 10 15 6 0 10 -7 10 -15z m5 -35
c3 -5 -1 -10 -10 -10 -9 0 -13 5 -10 10 3 6 8 10 10 10 2 0 7 -4 10 -10z m75
-114 c0 -3 -9 -6 -20 -6 -19 0 -27 20 -14 33 6 6 34 -16 34 -27z m-161 -123
c-7 -40 -19 -75 -26 -77 -17 -7 -17 1 10 112 25 110 37 85 16 -35z m181 55
c33 -24 37 -40 15 -58 -20 -17 -40 -3 -23 18 11 13 11 14 -1 8 -10 -7 -12 -4
-7 12 6 17 3 20 -16 16 -13 -2 -17 -2 -10 2 6 3 10 10 6 15 -9 15 5 10 36 -13z
m-120 -128 c0 -5 -4 -10 -10 -10 -5 0 -10 5 -10 10 0 6 5 10 10 10 6 0 10 -4
10 -10z"/>
<path d="M3786 1813 c-6 -14 -5 -15 5 -6 7 7 10 15 7 18 -3 3 -9 -2 -12 -12z"/>
<path d="M857 2101 c-18 -31 -18 -31 10 -65 15 -19 28 -34 29 -33 1 1 -3 30
-9 65 l-12 63 -18 -30z"/>
<path d="M1064 2109 c-4 -7 -8 -27 -10 -46 -2 -27 0 -32 10 -24 7 6 13 27 14
46 1 37 -2 43 -14 24z"/>
<path d="M3382 2075 c0 -16 2 -22 5 -12 2 9 2 23 0 30 -3 6 -5 -1 -5 -18z"/>
<path d="M2385 2080 c-4 -6 11 -10 37 -10 31 0 39 3 28 10 -20 13 -57 13 -65
0z"/>
<path d="M2329 2053 l-24 -26 33 23 c33 25 38 30 24 30 -5 0 -19 -12 -33 -27z"/>
<path d="M2490 2066 c0 -2 11 -6 25 -8 13 -3 22 -1 19 3 -5 9 -44 13 -44 5z"/>
<path d="M2550 2050 c0 -5 5 -10 11 -10 5 0 7 5 4 10 -3 6 -8 10 -11 10 -2 0
-4 -4 -4 -10z"/>
<path d="M806 2025 c-11 -8 -28 -15 -39 -15 -13 0 -17 -5 -13 -17 2 -10 10
-44 17 -76 7 -32 16 -54 21 -49 4 4 3 23 -2 42 -14 50 -13 80 5 80 12 0 15
-13 15 -56 l0 -57 21 27 c16 20 19 34 14 54 -4 15 -7 39 -7 55 -1 31 -5 32
-32 12z"/>
<path d="M2236 2025 c-9 -26 -7 -32 5 -12 6 10 9 21 6 23 -2 3 -7 -2 -11 -11z"/>
<path d="M2605 2023 c17 -9 45 -27 63 -41 23 -18 31 -20 26 -8 -3 9 -12 16
-20 16 -8 0 -14 3 -14 8 0 9 -58 42 -73 42 -7 -1 2 -8 18 -17z"/>
<path d="M4008 2008 c-15 -15 -23 -28 -19 -28 9 0 56 49 50 53 -2 1 -16 -10
-31 -25z"/>
<path d="M847 2024 c-3 -4 2 -23 12 -43 10 -20 22 -55 26 -78 4 -29 12 -43 26
-46 26 -7 25 19 -1 33 -11 6 -20 15 -20 21 0 6 5 7 11 3 7 -4 9 2 7 17 -2 14
-9 23 -17 21 -9 -2 -12 4 -9 16 3 12 -2 23 -14 31 -10 6 -16 16 -13 21 7 11 2
13 -8 4z"/>
<path d="M3315 2020 c3 -5 8 -10 11 -10 2 0 4 5 4 10 0 6 -5 10 -11 10 -5 0
-7 -4 -4 -10z"/>
<path d="M3515 1971 c-3 -5 -1 -12 5 -16 5 -3 10 1 10 9 0 18 -6 21 -15 7z"/>
<path d="M536 1963 c-6 -7 38 -88 61 -111 7 -7 13 -21 13 -31 0 -23 51 -90 69
-91 11 0 11 3 1 15 -7 8 -9 15 -5 15 4 0 2 7 -5 15 -7 8 -16 12 -21 9 -5 -3
-9 0 -9 5 0 15 13 14 29 -1 11 -10 14 -10 18 -1 3 10 9 10 24 0 23 -14 25 -37
4 -37 -8 0 -15 5 -15 11 0 5 -5 7 -10 4 -8 -5 -7 -11 1 -21 6 -8 8 -14 3 -14
-4 0 -3 -5 4 -12 12 -12 84 -39 89 -34 2 2 -1 15 -7 30 -5 15 -10 38 -10 52 0
19 -8 29 -36 40 -20 8 -41 13 -47 11 -19 -7 -103 70 -125 113 -10 22 -22 37
-26 33z"/>
<path d="M2310 1961 c0 -6 4 -13 10 -16 6 -3 7 1 4 9 -7 18 -14 21 -14 7z"/>
<path d="M2710 1951 c0 -6 4 -13 10 -16 6 -3 7 1 4 9 -7 18 -14 21 -14 7z"/>
<path d="M3262 1938 c-18 -18 -14 -34 13 -52 24 -16 26 -16 37 10 11 23 10 28
-7 40 -23 17 -28 17 -43 2z m36 -26 c2 -7 -3 -12 -12 -12 -9 0 -16 7 -16 16 0
17 22 14 28 -4z"/>
<path d="M740 1924 c0 -5 4 -26 9 -46 9 -40 -2 -54 -13 -15 -4 13 -9 18 -13
11 -5 -6 -16 -15 -27 -21 -16 -9 -12 -11 22 -17 23 -3 46 -14 51 -24 15 -24
13 0 -2 60 -12 43 -27 74 -27 52z"/>
<path d="M2730 1916 c0 -2 8 -10 18 -17 15 -13 16 -12 3 4 -13 16 -21 21 -21
13z"/>
<path d="M3646 1903 c-6 -14 -5 -15 5 -6 7 7 10 15 7 18 -3 3 -9 -2 -12 -12z"/>
<path d="M850 1880 c0 -11 -1 -23 -2 -27 -1 -5 7 -9 18 -10 10 -2 13 0 7 3 -8
3 -11 15 -7 30 4 15 2 24 -5 24 -6 0 -11 -9 -11 -20z"/>
<path d="M2328 1893 c7 -3 16 -2 19 1 4 3 -2 6 -13 5 -11 0 -14 -3 -6 -6z"/>
<path d="M3500 1866 c0 -2 7 -7 16 -10 8 -3 12 -2 9 4 -6 10 -25 14 -25 6z"/>
<path d="M571 1822 c-1 -34 36 -119 46 -108 10 10 42 -25 37 -39 -3 -7 8 -18
25 -25 17 -7 31 -17 31 -22 0 -6 9 -8 20 -5 11 3 20 0 21 -6 4 -52 7 -65 19
-87 7 -14 26 -40 41 -58 34 -38 39 -94 13 -131 -16 -22 -16 -22 4 -10 12 7 23
22 26 32 4 17 10 14 45 -22 23 -23 45 -40 50 -36 5 3 20 -9 33 -27 12 -18 30
-40 39 -48 9 -8 47 -49 84 -90 37 -41 86 -85 109 -97 37 -20 39 -22 15 -23
-14 0 -43 11 -63 25 -20 14 -44 25 -53 25 -10 0 -14 6 -10 20 3 13 0 20 -8 20
-17 0 -59 54 -75 94 -6 16 -13 27 -16 24 -2 -3 0 -18 6 -34 l11 -29 -25 24
c-14 14 -26 30 -26 38 0 7 -4 13 -10 13 -23 0 -7 -34 40 -81 31 -31 47 -55 44
-64 -5 -11 1 -15 20 -15 16 0 26 -6 26 -15 0 -8 5 -15 11 -15 5 0 27 -11 47
-25 23 -16 51 -25 75 -25 29 0 55 -12 115 -54 42 -29 127 -77 187 -106 61 -29
118 -57 129 -62 13 -7 17 -6 14 3 -2 7 -27 22 -54 32 -85 33 -122 52 -214 111
-25 16 -49 35 -55 42 -12 15 -144 104 -155 104 -9 0 -183 208 -198 236 -6 12
-24 24 -40 27 -32 7 -92 78 -92 109 0 10 -5 18 -12 18 -6 0 -8 3 -5 7 4 3 16
-2 27 -12 23 -20 24 -17 10 20 -7 19 -15 25 -28 21 -31 -10 -82 70 -59 93 8 8
8 11 0 11 -6 0 -13 11 -15 25 -6 31 0 32 12 3 8 -21 9 -21 9 -3 1 41 -14 50
-57 36 -31 -10 -44 -11 -61 -1 -13 6 -20 14 -18 17 3 2 15 -1 27 -7 12 -6 24
-9 27 -7 3 3 -8 12 -24 21 -39 19 -102 92 -109 125 -10 45 -12 47 -13 13z"/>
<path d="M1065 1841 c3 -5 1 -12 -5 -16 -13 -8 -13 -75 -1 -75 6 0 12 -12 14
-27 3 -16 3 -3 1 27 -2 38 0 49 6 35 7 -16 9 -13 9 16 1 25 -4 39 -15 43 -8 3
-12 2 -9 -3z"/>
<path d="M4034 1839 c-32 -11 -38 -28 -18 -44 25 -19 32 -18 42 3 15 27 1 51
-24 41z m16 -23 c0 -11 -19 -15 -25 -6 -3 5 1 10 9 10 9 0 16 -2 16 -4z"/>
<path d="M807 1833 c-4 -3 -7 -13 -7 -22 1 -13 3 -13 11 2 11 19 8 33 -4 20z"/>
<path d="M916 1828 c4 -7 9 -24 10 -37 2 -14 10 -31 19 -37 8 -6 15 -17 15
-25 1 -8 7 -25 16 -39 l15 -25 -7 25 c-5 21 -14 53 -40 138 -2 6 -11 12 -19
12 -10 0 -13 -5 -9 -12z"/>
<path d="M839 1816 c6 -7 9 -21 5 -30 -3 -9 0 -23 7 -32 11 -14 14 -11 24 23
9 32 9 39 -4 45 -29 12 -45 10 -32 -6z"/>
<path d="M970 1805 c0 -8 5 -15 10 -15 6 0 10 7 10 15 0 8 -4 15 -10 15 -5 0
-10 -7 -10 -15z"/>
<path d="M821 1794 c0 -11 3 -14 6 -6 3 7 2 16 -1 19 -3 4 -6 -2 -5 -13z"/>
<path d="M3190 1780 c0 -16 4 -30 8 -30 5 0 7 14 4 30 -2 17 -6 30 -8 30 -2 0
-4 -13 -4 -30z"/>
<path d="M993 1789 c-8 -8 -8 -21 -1 -43 5 -17 9 -47 9 -66 0 -39 17 -90 30
-90 12 0 11 37 -1 78 -5 19 -10 56 -12 83 -3 51 -7 56 -25 38z"/>
<path d="M900 1753 c0 -17 -4 -35 -10 -38 -5 -3 -10 -21 -9 -38 1 -31 1 -31 9
-7 7 22 8 19 8 -15 0 -22 5 -61 11 -87 10 -48 66 -148 82 -148 14 0 11 16 -6
30 -8 7 -15 20 -15 30 0 10 -6 20 -12 23 -23 9 -41 94 -34 165 4 49 2 74 -9
92 l-14 25 -1 -32z"/>
<path d="M3682 1735 c0 -16 2 -22 5 -12 2 9 2 23 0 30 -3 6 -5 -1 -5 -18z"/>
<path d="M825 1723 c4 -19 2 -33 -3 -33 -14 0 0 -55 35 -130 31 -67 118 -190
134 -190 15 0 10 20 -6 26 -23 9 -102 137 -124 201 -11 32 -23 67 -27 77 -5
14 -4 17 4 12 17 -10 14 14 -4 44 l-15 25 6 -32z"/>
<path d="M1182 1725 c0 -16 2 -22 5 -12 2 9 2 23 0 30 -3 6 -5 -1 -5 -18z"/>
<path d="M1040 1704 c0 -10 5 -26 10 -34 8 -11 9 -7 4 15 -8 37 -14 45 -14 19z"/>
<path d="M620 1702 c0 -12 19 -26 26 -19 2 2 -2 10 -11 17 -9 8 -15 8 -15 2z"/>
<path d="M3671 1684 c0 -11 3 -14 6 -6 3 7 2 16 -1 19 -3 4 -6 -2 -5 -13z"/>
<path d="M1190 1671 c0 -11 4 -22 9 -25 4 -3 6 6 3 19 -5 30 -12 33 -12 6z"/>
<path d="M2933 1664 c-3 -8 1 -22 9 -30 12 -12 17 -12 33 -1 23 17 14 47 -15
47 -11 0 -23 -7 -27 -16z m37 -9 c0 -8 -4 -15 -9 -15 -13 0 -22 16 -14 24 11
11 23 6 23 -9z"/>
<path d="M957 1628 c7 -54 23 -74 23 -27 0 18 -7 42 -14 52 -13 16 -14 14 -9
-25z"/>
<path d="M2813 1630 c0 -25 2 -35 4 -22 2 12 2 32 0 45 -2 12 -4 2 -4 -23z"/>
<path d="M3976 1655 c-11 -8 -15 -15 -9 -15 6 0 16 7 23 15 16 19 11 19 -14 0z"/>
<path d="M3586 1635 c-4 -17 -15 -38 -23 -47 -11 -12 -12 -18 -4 -18 14 0 44
66 38 83 -2 7 -7 -2 -11 -18z"/>
<path d="M3450 1630 c6 -11 15 -20 20 -20 6 0 2 9 -7 20 -10 11 -19 20 -21 20
-1 0 2 -9 8 -20z"/>
<path d="M1200 1618 c0 -10 13 -18 35 -22 52 -10 78 -55 68 -116 -12 -80 -8
-99 30 -138 20 -20 39 -33 42 -30 4 3 -10 21 -30 39 l-36 33 7 82 c7 83 7 83
-24 113 -17 17 -39 31 -49 31 -11 0 -24 5 -31 12 -9 9 -12 8 -12 -4z"/>
<path d="M676 1604 c-9 -8 -15 -25 -15 -37 1 -20 2 -21 6 -2 3 11 12 28 21 38
19 21 9 23 -12 1z"/>
<path d="M2737 1593 c-12 -12 -7 -40 9 -54 12 -10 20 -10 34 -1 16 10 19 8 23
-11 2 -12 3 -4 0 17 -2 22 -6 43 -9 48 -6 10 -48 11 -57 1z m41 -24 c-2 -6 -8
-10 -13 -10 -5 0 -11 4 -13 10 -2 6 4 11 13 11 9 0 15 -5 13 -11z"/>
<path d="M3874 1584 c-18 -14 -18 -15 4 -4 12 6 22 13 22 15 0 8 -5 6 -26 -11z"/>
<path d="M820 1580 c0 -8 5 -22 10 -30 9 -13 10 -13 10 0 0 8 -5 22 -10 30 -9
13 -10 13 -10 0z"/>
<path d="M3100 1555 c-15 -19 -31 -31 -40 -28 -10 3 -11 2 -4 -4 12 -9 29 -53
26 -66 -1 -5 2 -6 8 -2 5 3 10 1 10 -4 0 -6 13 -11 29 -11 21 0 38 10 60 35
17 20 31 41 31 48 -1 23 -26 45 -61 55 -32 9 -36 7 -59 -23z m93 -14 c11 -11
-17 -62 -45 -80 -41 -26 -67 41 -32 81 17 18 58 18 77 -1z"/>
<path d="M3130 1522 c-17 -13 -21 -24 -16 -40 6 -18 11 -20 27 -12 10 6 26 24
34 41 l16 30 -25 -16 c-13 -9 -27 -23 -30 -32 -4 -9 -9 -13 -13 -9 -4 3 4 17
17 31 27 29 22 33 -10 7z"/>
<path d="M1175 1560 c3 -5 16 -10 28 -9 21 0 21 1 2 9 -28 12 -37 12 -30 0z"/>
<path d="M2515 1561 c-12 -5 -27 -16 -34 -25 -7 -9 -26 -16 -42 -16 -21 0 -32
-7 -42 -27 -13 -24 -12 -29 10 -54 17 -19 31 -25 46 -21 35 8 49 24 44 49 -5
28 19 37 104 37 73 1 103 -29 120 -119 14 -71 -39 -153 -106 -164 -34 -6 -34
-6 -10 -17 22 -11 29 -8 72 29 39 35 46 38 41 19 -4 -16 -2 -22 9 -22 13 0 13
-3 3 -15 -11 -13 -7 -13 26 1 48 20 54 29 54 77 0 27 -4 36 -12 31 -6 -4 -23
-8 -37 -9 -25 -2 -26 0 -23 40 5 54 -31 131 -72 157 -31 19 -55 20 -148 2 -24
-4 -38 -3 -38 4 0 13 74 42 108 42 65 -1 166 -58 202 -114 17 -27 20 -28 20
-10 0 23 -64 85 -115 112 -34 17 -150 26 -180 13z m-47 -73 c16 -16 15 -23 -4
-43 -15 -15 -18 -15 -35 1 -14 13 -16 21 -8 35 11 22 30 24 47 7z m320 -216
c4 -28 -24 -40 -44 -20 -8 8 -12 22 -8 31 9 24 48 15 52 -11z"/>
<path d="M670 1533 c0 -5 29 -38 65 -73 68 -67 75 -83 50 -116 -8 -10 -14 -23
-15 -29 0 -5 9 4 20 20 11 17 20 37 20 45 -1 16 -140 168 -140 153z"/>
<path d="M1235 1518 c4 -13 11 -27 16 -33 5 -5 4 5 -2 23 -12 36 -24 44 -14
10z"/>
<path d="M3667 1522 c-16 -18 -16 -20 1 -35 24 -22 29 -21 41 2 8 14 6 22 -8
35 -16 15 -19 15 -34 -2z m30 -28 c-9 -9 -28 6 -21 18 4 6 10 6 17 -1 6 -6 8
-13 4 -17z"/>
<path d="M1190 1520 c1 -23 30 -95 38 -93 5 1 15 -11 22 -27 7 -17 16 -30 21
-30 5 0 -5 26 -23 58 -34 61 -58 99 -58 92z"/>
<path d="M3375 1510 c-3 -5 -1 -10 4 -10 6 0 11 5 11 10 0 6 -2 10 -4 10 -3 0
-8 -4 -11 -10z"/>
<path d="M3754 1488 l-19 -23 23 19 c21 18 27 26 19 26 -2 0 -12 -10 -23 -22z"/>
<path d="M3547 1454 c-10 -14 -13 -23 -6 -22 6 2 14 -3 16 -10 3 -8 -1 -12
-10 -10 -9 2 -16 -1 -16 -5 0 -5 -11 -23 -25 -42 -15 -19 -25 -38 -24 -42 2
-4 -7 -19 -19 -33 -64 -74 -63 -71 -36 -94 13 -12 33 -46 43 -76 l20 -55 -3
50 c-1 35 -9 56 -24 74 -30 32 -29 44 7 79 17 17 30 37 30 46 0 8 4 17 9 20 5
4 7 -4 5 -16 -4 -21 -4 -21 5 -3 4 11 7 23 5 26 -2 4 3 12 11 19 8 7 12 16 9
21 -3 5 2 12 10 15 11 4 15 18 14 45 -1 21 -2 39 -2 39 -1 0 -9 -12 -19 -26z"/>
<path d="M900 1431 c0 -18 26 -65 44 -80 23 -20 20 -7 -14 46 -16 26 -30 41
-30 34z"/>
<path d="M3022 1414 c-12 -8 -20 -20 -17 -25 4 -5 -1 -9 -9 -9 -10 0 -16 -9
-16 -22 1 -21 2 -22 14 -6 7 10 16 15 19 12 3 -3 11 -3 17 1 8 5 7 11 -2 23
-11 14 -11 14 6 5 14 -8 23 -6 37 6 11 8 19 19 19 24 0 5 -6 5 -13 -2 -9 -7
-17 -7 -23 -1 -6 6 -18 4 -32 -6z"/>
<path d="M3089 1399 c-9 -8 -14 -25 -13 -36 4 -23 -29 -58 -45 -48 -6 3 -11
14 -11 23 0 12 -3 13 -12 4 -9 -9 -7 -16 6 -31 16 -17 21 -18 49 -6 20 8 34
23 39 40 6 22 4 26 -10 21 -14 -5 -14 -4 1 8 10 8 17 21 15 28 -2 11 -6 10
-19 -3z"/>
<path d="M1001 1341 c-11 -7 -7 -17 19 -50 43 -53 48 -52 16 3 -14 24 -22 46
-19 50 9 9 0 7 -16 -3z"/>
<path d="M3040 1334 c0 -14 3 -14 15 -4 8 7 15 14 15 16 0 2 -7 4 -15 4 -8 0
-15 -7 -15 -16z"/>
<path d="M2219 1304 c-42 -22 -50 -36 -36 -64 19 -38 56 -33 81 9 11 19 15 32
9 28 -10 -6 -28 19 -25 36 1 4 1 7 0 6 -2 -1 -15 -7 -29 -15z m21 -43 c0 -21
-26 -36 -36 -20 -9 15 3 39 21 39 8 0 15 -9 15 -19z"/>
<path d="M3660 1260 c-18 -11 -14 -14 35 -26 55 -12 53 -36 -5 -51 -25 -6 -61
-12 -81 -12 -21 -1 -39 -7 -42 -14 -4 -12 8 -12 75 -1 43 7 86 18 94 25 24 20
17 50 -16 62 -16 6 -30 15 -30 19 0 11 -12 10 -30 -2z"/>
<path d="M1413 1235 c-19 -21 -16 -27 7 -15 11 6 20 15 20 20 0 14 -13 12 -27
-5z"/>
<path d="M1936 1194 c-15 -24 -31 -42 -35 -40 -11 7 -36 -12 -28 -21 14 -13
61 24 80 62 26 52 17 52 -17 -1z"/>
<path d="M3522 1227 c-9 -11 -8 -18 6 -30 23 -21 52 -6 36 20 -14 23 -29 26
-42 10z m38 -17 c0 -5 -7 -10 -15 -10 -8 0 -15 5 -15 10 0 6 7 10 15 10 8 0
15 -4 15 -10z"/>
<path d="M1280 1177 c0 -7 9 -13 20 -14 11 -1 20 0 20 2 0 2 -9 9 -20 15 -15
8 -20 8 -20 -3z"/>
<path d="M2239 1165 c-19 -13 -40 -29 -46 -35 -7 -6 -13 -8 -13 -4 0 4 -9 -1
-19 -10 -11 -10 -24 -15 -30 -12 -5 4 -12 2 -16 -4 -4 -6 -11 -8 -16 -5 -5 4
-9 1 -9 -6 0 -21 59 -1 126 43 35 23 64 46 64 50 0 12 -3 11 -41 -17z"/>
<path d="M2565 1170 c-3 -5 -3 -15 1 -22 5 -7 2 -9 -9 -5 -13 5 -14 2 -8 -16
11 -30 56 -36 64 -8 6 24 0 31 -27 31 -21 1 -21 1 -2 15 17 13 17 15 4 15 -9
0 -20 -4 -23 -10z m35 -45 c0 -8 -7 -15 -15 -15 -8 0 -15 7 -15 15 0 8 7 15
15 15 8 0 15 -7 15 -15z"/>
<path d="M1175 1120 c21 -22 41 -40 44 -40 3 0 -13 18 -34 40 -21 22 -41 40
-44 40 -3 0 13 -18 34 -40z"/>
<path d="M1660 1150 c0 -5 5 -10 11 -10 5 0 7 5 4 10 -3 6 -8 10 -11 10 -2 0
-4 -4 -4 -10z"/>
<path d="M1756 1135 c-4 -12 5 -15 49 -15 30 0 55 4 55 9 0 5 -15 8 -32 6 -18
-1 -40 2 -50 6 -11 6 -18 4 -22 -6z"/>
<path d="M3551 1084 c0 -11 3 -14 6 -6 3 7 2 16 -1 19 -3 4 -6 -2 -5 -13z"/>
<path d="M1780 1076 c0 -2 7 -7 16 -10 8 -3 12 -2 9 4 -6 10 -25 14 -25 6z"/>
<path d="M2325 1065 c-16 -8 -24 -14 -17 -15 6 0 12 -9 12 -20 0 -29 43 -54
69 -40 32 16 29 68 -5 80 -14 6 -26 10 -27 9 -1 0 -15 -7 -32 -14z m64 -19
c15 -18 3 -46 -20 -46 -22 0 -34 22 -25 45 7 19 30 19 45 1z"/>
<path d="M2754 1065 c-4 -9 -13 -14 -20 -11 -16 6 -50 -22 -58 -50 -5 -15 0
-24 20 -34 25 -14 27 -12 70 34 25 26 43 53 41 59 -6 19 -46 20 -53 2z m40 -4
c3 -5 -1 -14 -8 -20 -16 -13 -32 2 -21 19 8 12 22 13 29 1z m-44 -46 c0 -19
-28 -38 -45 -31 -19 7 -19 20 0 40 17 17 45 11 45 -9z"/>
<path d="M2715 1009 c-10 -15 3 -25 16 -12 7 7 7 13 1 17 -6 3 -14 1 -17 -5z"/>
<path d="M1020 1063 c0 -16 30 -38 90 -68 37 -18 81 -54 137 -113 46 -48 83
-81 83 -73 0 27 -153 172 -215 203 -33 17 -68 37 -77 46 -10 8 -18 11 -18 5z"/>
<path d="M3578 1053 c12 -2 32 -2 45 0 12 2 2 4 -23 4 -25 0 -35 -2 -22 -4z"/>
<path d="M2464 966 c-9 -24 3 -46 26 -46 17 0 21 5 18 27 -3 31 -34 44 -44 19z
m34 -17 c-2 -6 -8 -10 -13 -10 -5 0 -11 4 -13 10 -2 6 4 11 13 11 9 0 15 -5
13 -11z"/>
<path d="M2360 960 c0 -5 5 -10 10 -10 6 0 10 5 10 10 0 6 -4 10 -10 10 -5 0
-10 -4 -10 -10z"/>
<path d="M1510 940 c0 -5 5 -10 10 -10 6 0 10 5 10 10 0 6 -4 10 -10 10 -5 0
-10 -4 -10 -10z"/>
<path d="M2845 889 c-38 -20 -69 -41 -67 -46 4 -14 -21 -9 -26 5 -2 7 5 16 17
19 30 8 26 21 -4 15 -16 -3 -25 -11 -25 -22 0 -10 -3 -25 -6 -34 -6 -17 -12
-18 126 29 41 14 77 31 81 37 4 6 14 8 23 5 19 -7 21 4 4 21 -9 9 -17 7 -36
-11 l-24 -22 6 23 c4 12 6 21 4 21 -2 -1 -34 -19 -73 -40z"/>
<path d="M1308 903 c7 -3 16 -2 19 1 4 3 -2 6 -13 5 -11 0 -14 -3 -6 -6z"/>
<path d="M2688 883 c7 -3 16 -2 19 1 4 3 -2 6 -13 5 -11 0 -14 -3 -6 -6z"/>
<path d="M3064 869 c-19 -21 -18 -21 2 -38 19 -15 20 -20 9 -41 -7 -13 -10
-31 -7 -42 5 -21 -26 -26 -45 -7 -17 17 -50 1 -58 -28 -4 -18 -1 -31 10 -42
14 -14 18 -14 43 0 15 8 27 22 26 30 -1 8 7 15 17 15 11 0 19 -3 19 -7 0 -13
47 -19 77 -10 33 10 164 91 146 91 -5 0 -30 -13 -54 -29 -46 -31 -60 -32 -52
-3 7 28 -45 75 -76 67 -21 -5 -23 -4 -12 9 9 11 10 20 1 35 -14 26 -22 26 -46
0z m31 -29 c-5 -8 -11 -8 -17 -2 -6 6 -7 16 -3 22 5 8 11 8 17 2 6 -6 7 -16 3
-22z m73 -69 c4 -26 -9 -43 -35 -47 -24 -4 -43 14 -43 41 0 30 9 36 45 33 23
-2 31 -9 33 -27z m-153 -81 c-9 -15 -25 -12 -32 6 -8 21 19 38 30 18 4 -8 5
-19 2 -24z"/>
<path d="M3106 756 c5 -13 44 -16 44 -4 0 4 -3 8 -7 9 -5 0 -16 2 -25 4 -10 2
-15 -2 -12 -9z"/>
<path d="M2639 863 c-13 -16 -12 -17 4 -4 16 13 21 21 13 21 -2 0 -10 -8 -17
-17z"/>
<path d="M2688 854 c-4 -17 -2 -20 13 -17 11 3 22 10 26 16 4 6 0 8 -10 4 -9
-3 -17 -1 -20 6 -2 6 -6 2 -9 -9z"/>
<path d="M1473 823 c-18 -7 -16 -48 2 -63 34 -28 69 18 40 50 -19 21 -22 22
-42 13z m32 -36 c0 -26 -20 -25 -23 2 -3 16 1 22 10 19 7 -3 13 -12 13 -21z"/>
<path d="M2675 810 c-19 -8 -19 -9 2 -9 12 -1 25 4 28 9 7 12 -2 12 -30 0z"/>
<path d="M1330 786 c0 -2 8 -10 18 -17 15 -13 16 -12 3 4 -13 16 -21 21 -21
13z"/>
<path d="M1680 780 c0 -6 7 -10 15 -10 8 0 15 2 15 4 0 2 -7 6 -15 10 -8 3
-15 1 -15 -4z"/>
<path d="M3395 780 c3 -5 11 -10 16 -10 6 0 7 5 4 10 -3 6 -11 10 -16 10 -6 0
-7 -4 -4 -10z"/>
<path d="M1715 759 c-4 -6 -4 -13 -1 -16 3 -4 6 -1 6 5 0 7 23 4 67 -8 37 -10
70 -17 72 -15 2 3 -2 7 -10 9 -120 40 -125 41 -134 25z"/>
<path d="M2460 752 c0 -5 7 -9 15 -9 8 0 12 4 9 9 -3 4 -9 8 -15 8 -5 0 -9 -4
-9 -8z"/>
<path d="M3441 727 c29 -51 55 -67 109 -67 52 0 105 28 122 65 9 19 14 22 25
14 22 -19 15 -44 -27 -92 -48 -55 -91 -71 -172 -65 -46 3 -64 10 -84 30 -21
20 -24 29 -16 45 8 15 7 22 -9 31 -11 7 -24 10 -29 7 -5 -3 -20 6 -35 21 -28
28 -49 28 -52 -2 -2 -10 0 -13 3 -6 9 18 38 15 51 -7 10 -15 9 -22 -2 -31 -12
-10 -12 -14 3 -29 9 -10 31 -25 47 -33 17 -8 44 -23 60 -32 38 -20 121 -21
171 0 43 17 101 76 110 111 8 31 2 54 -19 67 -16 9 -25 4 -59 -34 -23 -25 -38
-39 -33 -31 6 10 2 11 -16 6 -13 -4 -25 -11 -27 -15 -5 -12 -84 7 -93 22 -5 8
-17 26 -29 39 -20 23 -20 23 1 -14z m-61 -61 c0 -16 -18 -31 -27 -22 -8 8 5
36 17 36 5 0 10 -6 10 -14z"/>
<path d="M1384 735 c11 -8 27 -15 35 -15 10 1 7 6 -9 15 -33 19 -50 18 -26 0z"/>
<path d="M1728 723 c6 -2 9 -10 6 -15 -4 -7 -2 -8 5 -4 13 9 5 26 -12 25 -9 0
-8 -2 1 -6z"/>
<path d="M1443 698 c15 -5 27 -14 27 -19 0 -5 9 -9 20 -9 11 0 20 -4 20 -10 0
-5 7 -10 15 -10 8 0 15 -5 15 -11 0 -5 5 -7 11 -4 14 9 -90 75 -116 74 -16 0
-15 -3 8 -11z"/>
<path d="M2792 693 c-6 -3 -10 -8 -7 -13 3 -4 -2 -10 -10 -13 -10 -4 -12 -1
-8 11 4 13 2 12 -10 -3 -9 -11 -11 -22 -6 -24 6 -1 3 -8 -6 -15 -13 -9 -14
-17 -6 -39 12 -32 31 -42 66 -33 28 7 72 69 54 75 -6 2 -15 15 -20 29 -8 20
-12 23 -19 13 -6 -12 -9 -11 -11 1 -2 8 -10 13 -17 11z m36 -46 c16 -18 -8
-61 -36 -65 -28 -4 -39 22 -22 54 15 26 41 31 58 11z"/>
<path d="M2777 615 c-6 -15 10 -32 20 -21 4 3 1 6 -5 6 -6 0 -9 7 -6 15 4 8 4
15 1 15 -3 0 -7 -7 -10 -15z"/>
<path d="M2806 617 c3 -10 9 -15 12 -12 3 3 0 11 -7 18 -10 9 -11 8 -5 -6z"/>
<path d="M2473 679 c-15 -15 -5 -47 18 -60 15 -8 24 -4 45 16 22 22 23 27 10
40 -17 18 -57 20 -73 4z m44 -15 c11 -11 13 -18 5 -26 -14 -14 -32 -1 -32 23
0 23 6 24 27 3z"/>
<path d="M2627 652 c-19 -21 -11 -37 23 -50 23 -9 25 -7 27 17 3 37 -29 57
-50 33z m33 -23 c0 -5 -7 -9 -15 -9 -15 0 -20 12 -9 23 8 8 24 -1 24 -14z"/>
<path d="M3260 646 c0 -14 -11 -38 -24 -53 -22 -26 -30 -28 -93 -27 -70 0 -92
9 -162 59 -42 31 -53 31 -70 3 -10 -18 -11 -20 0 -10 20 19 37 15 86 -23 54
-41 112 -59 171 -52 51 6 83 32 105 88 13 33 13 39 1 39 -8 0 -14 -10 -14 -24z"/>
<path d="M1667 653 c-14 -13 -6 -49 12 -60 21 -13 32 -6 44 28 9 28 -35 53
-56 32z m37 -12 c8 -13 -4 -42 -15 -35 -12 7 -12 44 0 44 6 0 12 -4 15 -9z"/>
<path d="M2696 642 c-3 -5 1 -9 9 -9 8 0 12 4 9 9 -3 4 -7 8 -9 8 -2 0 -6 -4
-9 -8z"/>
<path d="M2158 633 c7 -3 16 -2 19 1 4 3 -2 6 -13 5 -11 0 -14 -3 -6 -6z"/>
<path d="M2301 626 c-6 -7 -9 -21 -5 -29 5 -13 0 -15 -29 -10 -41 6 -52 -6
-36 -41 7 -14 10 -28 7 -31 -3 -3 -27 4 -53 15 -46 20 -149 30 -162 16 -4 -3
11 -6 33 -6 21 0 55 -4 74 -9 19 -5 47 -12 62 -15 15 -3 40 -19 55 -35 34 -35
69 -41 104 -18 23 16 26 22 19 52 -5 21 -3 38 4 45 6 6 7 11 1 10 -23 -5 -25
2 -9 31 8 17 11 28 6 25 -6 -4 -13 -2 -17 4 -9 14 -41 12 -54 -4z m44 -17 c10
-15 -1 -23 -20 -15 -9 3 -13 10 -10 16 8 13 22 13 30 -1z m-83 -44 c0 -5 -5
-11 -11 -13 -6 -2 -11 4 -11 13 0 9 5 15 11 13 6 -2 11 -8 11 -13z m74 -17 c4
-7 4 -10 -1 -6 -4 4 -14 0 -22 -10 -8 -9 -11 -11 -7 -3 5 9 3 12 -4 7 -18 -11
-14 -23 9 -29 15 -4 19 -2 15 9 -3 8 1 14 9 14 19 0 19 -34 0 -50 -20 -17 -62
-5 -70 21 -13 38 51 80 71 47z"/>
<path d="M1612 597 c26 -21 159 -97 147 -84 -3 4 -43 29 -90 57 -46 27 -72 40
-57 27z"/>
<path d="M2860 579 c-14 -15 -44 -40 -67 -55 -49 -30 -57 -42 -15 -20 33 17
119 92 112 98 -3 3 -16 -8 -30 -23z"/>
<path d="M2548 563 c7 -3 16 -2 19 1 4 3 -2 6 -13 5 -11 0 -14 -3 -6 -6z"/>
<path d="M2587 549 c7 -7 15 -10 18 -7 3 3 -2 9 -12 12 -14 6 -15 5 -6 -5z"/>
<path d="M1964 525 c-17 -13 -16 -14 14 -4 33 11 41 19 19 19 -7 0 -22 -7 -33
-15z"/>
<path d="M2528 513 c7 -3 16 -2 19 1 4 3 -2 6 -13 5 -11 0 -14 -3 -6 -6z"/>
<path d="M2588 503 c7 -3 16 -2 19 1 4 3 -2 6 -13 5 -11 0 -14 -3 -6 -6z"/>
<path d="M2645 490 c3 -5 13 -10 21 -10 8 0 12 5 9 10 -3 6 -13 10 -21 10 -8
0 -12 -4 -9 -10z"/>
</g>
</svg>
